<svg width="56" height="56" viewBox="0 0 56 56" fill="none" xmlns="http://www.w3.org/2000/svg">
<path d="M40.3455 5.01923L40.3434 5.01837C40.2978 4.99941 40.2475 4.99443 40.199 5.00404C40.1505 5.01365 40.1059 5.03743 40.0709 5.07237L33.073 12.0703C33.0729 12.0704 33.0728 12.0705 33.0727 12.0706C33.0497 12.0938 33.0314 12.1213 33.0189 12.1515C33.0063 12.1819 32.9999 12.2145 33 12.2473L33 12.25L33 22.0255V22.6468L32.5607 23.0861L29.9672 25.6796L29.3546 26.2922L28.5179 26.0678C28.2291 25.9903 27.9265 25.9786 27.6325 26.0335C27.3385 26.0884 27.0606 26.2086 26.8192 26.3851C26.5778 26.5617 26.3791 26.7901 26.2376 27.0536C26.0986 27.3126 26.0184 27.5989 26.0027 27.8922L26 28.014C26.0037 28.5394 26.214 29.0424 26.5858 29.4142C26.9608 29.7892 27.4694 29.9999 27.9997 30L40.3455 5.01923ZM40.3455 5.01923C40.3912 5.03812 40.4303 5.07016 40.4578 5.11129C40.4853 5.15234 40.4999 5.20061 40.5 5.24998H42M40.3455 5.01923L40.5 5.25021M43.5 14H42V12.5V5.24998M43.5 14L39.9074 3.53265C40.2469 3.46537 40.5988 3.50028 40.9185 3.63298C41.2385 3.76527 41.5121 3.98952 41.7046 4.27736C41.8971 4.56521 41.9999 4.90369 42 5.24998M43.5 14H50.75H43.5ZM42 5.24998L40.5 5.25021M40.5 5.25021V14V15.5H42L50.75 15.5L50.7527 15.5C50.8022 15.4999 50.8506 15.5145 50.8918 15.542C50.933 15.5694 50.9651 15.6085 50.9841 15.6542L52.3697 15.0799L50.9841 15.6543C51.003 15.7 51.008 15.7503 50.9983 15.7989C50.9886 15.8474 50.9647 15.892 50.9297 15.927L50.9283 15.9283L43.9297 22.927L44.989 23.989L43.9283 22.9283L43.9291 22.9276C43.9059 22.9505 43.8785 22.9687 43.8484 22.9811C43.8181 22.9936 43.7855 23 43.7527 23H43.75H33.9745H33.3526L32.9131 23.44L30.3231 26.0335L29.7124 26.6451L29.9352 27.4801C30.0143 27.7768 30.0242 28.0878 29.9641 28.3889L31.435 28.6827L29.9641 28.3889C29.9039 28.6901 29.7753 28.9733 29.5883 29.2169C29.4012 29.4604 29.1607 29.6577 28.8852 29.7935C28.6099 29.9292 28.307 29.9999 28 30L40.5 5.25021ZM43.0255 22.5H43.6468L44.0862 22.0606L47.5862 18.5606L50.1468 16H46.5255H40.25C40.1837 16 40.1201 15.9736 40.0732 15.9268C40.0263 15.8799 40 15.8163 40 15.75V9.47448V5.85316L37.4393 8.41382L33.9393 11.9138L33.5 12.3532V12.9745V21V22.5H35H43.0255ZM18.8958 10.7574C21.6056 9.32549 24.6015 8.5592 27.6378 8.50182C27.5275 8.66719 27.4245 8.83739 27.3291 9.01192C23.7924 9.13733 20.3561 10.2484 17.4108 12.2262C14.2795 14.3287 11.8449 17.3156 10.417 20.8065C8.98901 24.2974 8.63232 28.1343 9.39231 31.8285C10.1523 35.5228 11.9946 38.9073 14.6846 41.551C17.3746 44.1948 20.7905 45.9781 24.4974 46.6739C28.2044 47.3697 32.0345 46.9465 35.5001 45.4582C38.9656 43.9699 41.9099 41.4838 43.9578 38.3166C45.8249 35.429 46.8699 32.0944 46.9908 28.6703C47.166 28.5743 47.3369 28.4707 47.5029 28.3596C47.4467 31.3958 46.6815 34.3918 45.2507 37.102C43.3435 40.7149 40.3496 43.6374 36.6919 45.4571C33.0342 47.2769 28.8973 47.9018 24.8653 47.2437C20.8332 46.5857 17.1097 44.6779 14.2204 41.7896C11.331 38.9014 9.42173 35.1786 8.7621 31.1469C8.10247 27.1151 8.72579 22.978 10.5441 19.3195C12.3623 15.6611 15.2837 12.6661 18.8958 10.7574ZM20.3986 35.6014L19.3379 36.662L20.3986 35.6014C18.8952 34.098 17.8713 32.1825 17.4566 30.0972C17.0418 28.0119 17.2546 25.8504 18.0683 23.8861C18.8819 21.9218 20.2598 20.2429 22.0276 19.0617C23.3765 18.1604 24.9062 17.5797 26.5 17.3551V17.8603C25.0055 18.0814 23.5719 18.6312 22.3054 19.4774C20.6198 20.6037 19.306 22.2045 18.5302 24.0775C17.7544 25.9504 17.5514 28.0114 17.9469 29.9997C18.3424 31.988 19.3187 33.8143 20.7521 35.2478C22.1856 36.6813 24.012 37.6575 26.0003 38.053C27.9886 38.4485 30.0496 38.2455 31.9225 37.4697C33.7954 36.694 35.3963 35.3802 36.5226 33.6946C37.3688 32.4281 37.9186 30.9945 38.1397 29.5H38.6448C38.4202 31.0938 37.8396 32.6235 36.9383 33.9724C35.7571 35.7402 34.0781 37.118 32.1138 37.9317C30.1495 38.7453 27.9881 38.9582 25.9028 38.5434C23.8175 38.1286 21.902 37.1048 20.3986 35.6014Z" fill="#1C1C1C" stroke="#1C1C1C" stroke-width="3"/>
</svg>
