<svg width="56" height="56" viewBox="0 0 56 56" fill="none" xmlns="http://www.w3.org/2000/svg">
<path d="M14 4.66675L7 14.0001V46.6668C7 47.9044 7.49167 49.0914 8.36683 49.9666C9.242 50.8418 10.429 51.3334 11.6667 51.3334H44.3333C45.571 51.3334 46.758 50.8418 47.6332 49.9666C48.5083 49.0914 49 47.9044 49 46.6668V14.0001L42 4.66675H14Z" stroke="#1C1C1C" stroke-width="3" stroke-linecap="round" stroke-linejoin="round"/>
<path d="M7 14H49" stroke="#1C1C1C" stroke-width="3" stroke-linecap="round" stroke-linejoin="round"/>
<path d="M37.3333 23.3333C37.3333 25.8086 36.35 28.1826 34.5996 29.9329C32.8493 31.6833 30.4753 32.6666 28 32.6666C25.5246 32.6666 23.1506 31.6833 21.4003 29.9329C19.65 28.1826 18.6666 25.8086 18.6666 23.3333" stroke="#1C1C1C" stroke-width="3" stroke-linecap="round" stroke-linejoin="round"/>
</svg>
