<svg width="56" height="56" viewBox="0 0 56 56" fill="none" xmlns="http://www.w3.org/2000/svg">
<path d="M37.3335 49V44.3333C37.3335 41.858 36.3502 39.484 34.5998 37.7337C32.8495 35.9833 30.4755 35 28.0002 35H11.6668C9.19148 35 6.81751 35.9833 5.06717 37.7337C3.31683 39.484 2.3335 41.858 2.3335 44.3333V49" stroke="#1C1C1C" stroke-width="3" stroke-linecap="round" stroke-linejoin="round"/>
<path d="M19.8333 25.6667C24.988 25.6667 29.1667 21.488 29.1667 16.3333C29.1667 11.1787 24.988 7 19.8333 7C14.6787 7 10.5 11.1787 10.5 16.3333C10.5 21.488 14.6787 25.6667 19.8333 25.6667Z" stroke="#1C1C1C" stroke-width="3" stroke-linecap="round" stroke-linejoin="round"/>
<path d="M46.6665 18.667V32.667" stroke="#1C1C1C" stroke-width="3" stroke-linecap="round" stroke-linejoin="round"/>
<path d="M53.6665 25.667H39.6665" stroke="#1C1C1C" stroke-width="3" stroke-linecap="round" stroke-linejoin="round"/>
</svg>
