<svg width="153" height="96" viewBox="0 0 153 96" fill="none" xmlns="http://www.w3.org/2000/svg">
<ellipse cx="151.341" cy="2.32442" rx="1.56649" ry="1.15882" transform="rotate(90 151.341 2.32442)" fill="#F8F8FA"/>
<ellipse cx="151.341" cy="25.2994" rx="1.56649" ry="1.15882" transform="rotate(90 151.341 25.2994)" fill="#F8F8FA"/>
<ellipse cx="151.341" cy="48.2746" rx="1.56649" ry="1.15882" transform="rotate(90 151.341 48.2746)" fill="#F8F8FA"/>
<ellipse cx="151.341" cy="71.2498" rx="1.56649" ry="1.15882" transform="rotate(90 151.341 71.2498)" fill="#F8F8FA"/>
<ellipse cx="151.341" cy="94.2249" rx="1.56649" ry="1.15882" transform="rotate(90 151.341 94.2249)" fill="#F8F8FA"/>
<ellipse cx="134.265" cy="2.3243" rx="1.56649" ry="1.15882" transform="rotate(90 134.265 2.3243)" fill="#F8F8FA"/>
<ellipse cx="134.265" cy="25.2994" rx="1.56649" ry="1.15882" transform="rotate(90 134.265 25.2994)" fill="#F8F8FA"/>
<ellipse cx="134.265" cy="48.2746" rx="1.56649" ry="1.15882" transform="rotate(90 134.265 48.2746)" fill="#F8F8FA"/>
<ellipse cx="134.265" cy="71.2497" rx="1.56649" ry="1.15882" transform="rotate(90 134.265 71.2497)" fill="#F8F8FA"/>
<ellipse cx="134.265" cy="94.2249" rx="1.56649" ry="1.15882" transform="rotate(90 134.265 94.2249)" fill="#F8F8FA"/>
<ellipse cx="117.189" cy="2.3243" rx="1.56649" ry="1.15882" transform="rotate(90 117.189 2.3243)" fill="#F8F8FA"/>
<ellipse cx="117.189" cy="25.2994" rx="1.56649" ry="1.15882" transform="rotate(90 117.189 25.2994)" fill="#F8F8FA"/>
<ellipse cx="117.189" cy="48.2746" rx="1.56649" ry="1.15882" transform="rotate(90 117.189 48.2746)" fill="#F8F8FA"/>
<ellipse cx="117.189" cy="71.2498" rx="1.56649" ry="1.15882" transform="rotate(90 117.189 71.2498)" fill="#F8F8FA"/>
<ellipse cx="117.189" cy="94.2249" rx="1.56649" ry="1.15882" transform="rotate(90 117.189 94.2249)" fill="#F8F8FA"/>
<ellipse cx="100.113" cy="2.3243" rx="1.56649" ry="1.15882" transform="rotate(90 100.113 2.3243)" fill="#F8F8FA"/>
<ellipse cx="100.113" cy="25.2994" rx="1.56649" ry="1.15882" transform="rotate(90 100.113 25.2994)" fill="#F8F8FA"/>
<ellipse cx="100.113" cy="48.2746" rx="1.56649" ry="1.15882" transform="rotate(90 100.113 48.2746)" fill="#F8F8FA"/>
<ellipse cx="100.113" cy="71.2498" rx="1.56649" ry="1.15882" transform="rotate(90 100.113 71.2498)" fill="#F8F8FA"/>
<ellipse cx="100.113" cy="94.2249" rx="1.56649" ry="1.15882" transform="rotate(90 100.113 94.2249)" fill="#F8F8FA"/>
<ellipse cx="83.0375" cy="2.3243" rx="1.56649" ry="1.15882" transform="rotate(90 83.0375 2.3243)" fill="#F8F8FA"/>
<ellipse cx="83.0375" cy="25.2995" rx="1.56649" ry="1.15882" transform="rotate(90 83.0375 25.2995)" fill="#F8F8FA"/>
<ellipse cx="83.0375" cy="48.2746" rx="1.56649" ry="1.15882" transform="rotate(90 83.0375 48.2746)" fill="#F8F8FA"/>
<ellipse cx="83.0375" cy="71.2498" rx="1.56649" ry="1.15882" transform="rotate(90 83.0375 71.2498)" fill="#F8F8FA"/>
<ellipse cx="83.0375" cy="94.2249" rx="1.56649" ry="1.15882" transform="rotate(90 83.0375 94.2249)" fill="#F8F8FA"/>
<ellipse cx="65.9618" cy="2.3243" rx="1.56649" ry="1.15882" transform="rotate(90 65.9618 2.3243)" fill="#F8F8FA"/>
<ellipse cx="65.9618" cy="25.2995" rx="1.56649" ry="1.15882" transform="rotate(90 65.9618 25.2995)" fill="#F8F8FA"/>
<ellipse cx="65.9618" cy="48.2746" rx="1.56649" ry="1.15882" transform="rotate(90 65.9618 48.2746)" fill="#F8F8FA"/>
<ellipse cx="65.9618" cy="71.2498" rx="1.56649" ry="1.15882" transform="rotate(90 65.9618 71.2498)" fill="#F8F8FA"/>
<ellipse cx="65.9618" cy="94.2249" rx="1.56649" ry="1.15882" transform="rotate(90 65.9618 94.2249)" fill="#F8F8FA"/>
<ellipse cx="48.8861" cy="2.3243" rx="1.56649" ry="1.15882" transform="rotate(90 48.8861 2.3243)" fill="#F8F8FA"/>
<ellipse cx="48.8861" cy="25.2995" rx="1.56649" ry="1.15882" transform="rotate(90 48.8861 25.2995)" fill="#F8F8FA"/>
<ellipse cx="48.8861" cy="48.2746" rx="1.56649" ry="1.15882" transform="rotate(90 48.8861 48.2746)" fill="#F8F8FA"/>
<ellipse cx="48.8861" cy="71.2498" rx="1.56649" ry="1.15882" transform="rotate(90 48.8861 71.2498)" fill="#F8F8FA"/>
<ellipse cx="48.8861" cy="94.2249" rx="1.56649" ry="1.15882" transform="rotate(90 48.8861 94.2249)" fill="#F8F8FA"/>
<ellipse cx="31.8104" cy="2.3243" rx="1.56649" ry="1.15882" transform="rotate(90 31.8104 2.3243)" fill="#F8F8FA"/>
<ellipse cx="31.8104" cy="25.2995" rx="1.56649" ry="1.15882" transform="rotate(90 31.8104 25.2995)" fill="#F8F8FA"/>
<ellipse cx="31.8104" cy="48.2746" rx="1.56649" ry="1.15882" transform="rotate(90 31.8104 48.2746)" fill="#F8F8FA"/>
<ellipse cx="31.8104" cy="71.2497" rx="1.56649" ry="1.15882" transform="rotate(90 31.8104 71.2497)" fill="#F8F8FA"/>
<ellipse cx="31.8104" cy="94.2249" rx="1.56649" ry="1.15882" transform="rotate(90 31.8104 94.2249)" fill="#F8F8FA"/>
<ellipse cx="14.7347" cy="2.3243" rx="1.56649" ry="1.15882" transform="rotate(90 14.7347 2.3243)" fill="#F8F8FA"/>
<ellipse cx="14.7347" cy="25.2995" rx="1.56649" ry="1.15882" transform="rotate(90 14.7347 25.2995)" fill="#F8F8FA"/>
<ellipse cx="14.7347" cy="48.2746" rx="1.56649" ry="1.15882" transform="rotate(90 14.7347 48.2746)" fill="#F8F8FA"/>
<ellipse cx="14.7347" cy="71.2498" rx="1.56649" ry="1.15882" transform="rotate(90 14.7347 71.2498)" fill="#F8F8FA"/>
<ellipse cx="14.7347" cy="94.2249" rx="1.56649" ry="1.15882" transform="rotate(90 14.7347 94.2249)" fill="#F8F8FA"/>
</svg>
