<svg width="16" height="16" viewBox="0 0 16 16" fill="none" xmlns="http://www.w3.org/2000/svg">
<circle cx="8" cy="8" r="8" fill="white"/>
<path d="M8.91671 5.33317C9.65309 5.33317 10.25 4.73622 10.25 3.99984C10.25 3.26346 9.65309 2.6665 8.91671 2.6665C8.18033 2.6665 7.58337 3.26346 7.58337 3.99984C7.58337 4.73622 8.18033 5.33317 8.91671 5.33317Z" fill="#AFAFAF"/>
<path d="M10.28 10.7433C10.2432 10.7185 10.2018 10.7013 10.1582 10.6928C10.1146 10.6842 10.0698 10.6844 10.0263 10.6934C9.98288 10.7025 9.94165 10.72 9.90507 10.7452C9.86849 10.7704 9.83731 10.8026 9.81335 10.8399C9.49111 11.3172 9.09636 11.7411 8.64335 12.0966C8.53335 12.1799 8.12335 12.4966 7.95002 12.4299C7.83002 12.3933 7.90002 12.1566 7.92335 12.0566L8.10001 11.5333C8.17335 11.3199 9.45002 7.53328 9.59002 7.09994C9.79668 6.46661 9.70668 5.84328 8.76335 5.99328C8.50668 6.01994 5.90335 6.35661 5.85668 6.35994C5.81291 6.36279 5.77012 6.37423 5.73077 6.39361C5.69142 6.41299 5.65627 6.43993 5.62733 6.47289C5.59838 6.50586 5.57622 6.5442 5.5621 6.58573C5.54797 6.62726 5.54217 6.67117 5.54501 6.71494C5.54786 6.75872 5.5593 6.8015 5.57868 6.84085C5.59806 6.88021 5.625 6.91536 5.65797 6.9443C5.69093 6.97324 5.72927 6.9954 5.7708 7.00953C5.81234 7.02365 5.85624 7.02945 5.90001 7.02661C5.90001 7.02661 6.90001 6.89661 7.01001 6.88661C7.06636 6.88111 7.12309 6.89203 7.17337 6.91805C7.22364 6.94408 7.26531 6.9841 7.29335 7.03328C7.35375 7.21999 7.34547 7.42213 7.27002 7.60328C7.18335 7.93661 5.81335 11.7966 5.77002 12.0199C5.72354 12.2068 5.73644 12.4036 5.80693 12.5828C5.87743 12.762 6.002 12.9148 6.16335 13.0199C6.46618 13.2218 6.82676 13.319 7.19001 13.2966C7.5432 13.2923 7.8925 13.2222 8.22002 13.0899C9.05001 12.7566 9.91668 11.8699 10.3733 11.1733C10.4127 11.1025 10.4249 11.0198 10.4077 10.9407C10.3905 10.8616 10.3451 10.7914 10.28 10.7433Z" fill="#AFAFAF"/>
</svg>
