<svg width="24" height="24" viewBox="0 0 24 24" fill="none" xmlns="http://www.w3.org/2000/svg">
<circle cx="12" cy="12" r="12" fill="#0D47A1"/>
<path d="M13.2221 8.44423C14.204 8.44423 14.9999 7.64829 14.9999 6.66645C14.9999 5.68461 14.204 4.88867 13.2221 4.88867C12.2403 4.88867 11.4443 5.68461 11.4443 6.66645C11.4443 7.64829 12.2403 8.44423 13.2221 8.44423Z" fill="white"/>
<path d="M15.0399 15.6579C14.9907 15.6248 14.9355 15.6019 14.8774 15.5905C14.8194 15.5791 14.7596 15.5794 14.7016 15.5914C14.6437 15.6034 14.5887 15.6269 14.5399 15.6604C14.4912 15.694 14.4496 15.7369 14.4176 15.7868C13.988 16.423 13.4617 16.9884 12.8576 17.4623C12.711 17.5734 12.1643 17.9956 11.9332 17.9068C11.7732 17.8579 11.8665 17.5423 11.8976 17.409L12.1332 16.7112C12.231 16.4268 13.9332 11.3779 14.1199 10.8001C14.3954 9.95564 14.2754 9.12453 13.0176 9.32453C12.6754 9.36009 9.2043 9.80898 9.14208 9.81342C9.08371 9.81721 9.02667 9.83247 8.9742 9.85831C8.92173 9.88415 8.87486 9.92007 8.83627 9.96402C8.79768 10.008 8.76813 10.0591 8.7493 10.1145C8.73047 10.1698 8.72273 10.2284 8.72652 10.2868C8.73032 10.3451 8.74557 10.4022 8.77141 10.4546C8.79725 10.5071 8.83317 10.554 8.87713 10.5926C8.92108 10.6311 8.9722 10.6607 9.02758 10.6795C9.08295 10.6984 9.14149 10.7061 9.19986 10.7023C9.19986 10.7023 10.5332 10.529 10.6799 10.5156C10.755 10.5083 10.8306 10.5229 10.8977 10.5576C10.9647 10.5923 11.0203 10.6456 11.0576 10.7112C11.1382 10.9601 11.1271 11.2297 11.0265 11.4712C10.911 11.9156 9.0843 17.0623 9.02652 17.3601C8.96455 17.6093 8.98176 17.8716 9.07575 18.1105C9.16974 18.3495 9.33584 18.5532 9.55097 18.6934C9.95475 18.9625 10.4355 19.0921 10.9199 19.0623C11.3908 19.0566 11.8565 18.9631 12.2932 18.7868C13.3999 18.3423 14.5554 17.1601 15.1643 16.2312C15.2167 16.1368 15.233 16.0266 15.2101 15.9211C15.1872 15.8156 15.1267 15.722 15.0399 15.6579Z" fill="white"/>
</svg>
