<svg width="214" height="145" viewBox="0 0 214 145" fill="none" xmlns="http://www.w3.org/2000/svg">
<path d="M62.1395 137.097C63.6558 135.642 66.0217 135.642 67.4238 137.097C68.8259 138.552 68.7332 140.911 67.2168 142.366C65.7005 143.821 63.3346 143.821 61.9325 142.366C60.5304 140.911 60.6231 138.552 62.1395 137.097Z" fill="#0D47A1"/>
<path d="M203.003 44.3999C200.144 44.3441 197.87 42.0751 197.923 39.332C197.977 36.5889 200.339 34.4105 203.198 34.4663C206.057 34.5221 208.332 36.7911 208.278 39.5342C208.224 42.2773 205.863 44.4558 203.003 44.3999Z" fill="#0D47A1"/>
<path d="M21.9989 103.305C20.9682 104.294 20.9361 105.93 21.9272 106.958C22.9184 107.986 24.5574 108.018 25.5881 107.029C26.6188 106.04 26.6509 104.405 25.6597 103.377C24.6686 102.348 23.0296 102.316 21.9989 103.305Z" fill="#E1E4E5"/>
<path d="M173.793 27.2507C175.045 26.5616 175.5 24.9902 174.81 23.7409C174.119 22.4916 172.544 22.0374 171.292 22.7265C170.04 23.4155 169.585 24.9869 170.275 26.2362C170.966 27.4856 172.541 27.9397 173.793 27.2507Z" fill="#E1E4E5"/>
<path d="M202.876 86.4829C204.306 86.5108 205.488 85.377 205.516 83.9506C205.544 82.5241 204.407 81.3451 202.978 81.3171C201.548 81.2892 200.366 82.423 200.338 83.8495C200.31 85.276 201.447 86.455 202.876 86.4829Z" fill="#E1E4E5"/>
<path d="M14.8373 47.5292C17.8285 45.8831 21.5908 46.9681 23.2406 49.9526C24.8904 52.9372 23.803 56.6911 20.8118 58.3373C17.8206 59.9834 14.0583 58.8984 12.4085 55.9138C10.7587 52.9293 11.8461 49.1753 14.8373 47.5292Z" fill="#0D47A1"/>
<path d="M39.8409 12.8564C41.2582 12.0764 43.0408 12.5905 43.8225 14.0046C44.6042 15.4188 44.089 17.1974 42.6717 17.9774C41.2544 18.7574 39.4718 18.2433 38.6901 16.8291C37.9084 15.415 38.4236 13.6363 39.8409 12.8564Z" fill="#E1E4E5"/>
<path d="M175.406 133.082C172.201 132.158 170.354 128.816 171.28 125.618C172.207 122.421 175.556 120.577 178.761 121.502C181.965 122.426 183.813 125.768 182.886 128.965C181.96 132.163 178.611 134.006 175.406 133.082Z" fill="#0D47A1"/>
<path fill-rule="evenodd" clip-rule="evenodd" d="M45.0574 88.8231V54.2231C45.0574 42.5833 51.2617 31.8225 61.3402 25.9662L94.1089 6.93715C99.1141 4.03193 104.801 2.50146 110.592 2.50146C116.382 2.50146 122.069 4.03193 127.075 6.93715L159.844 25.9662C169.929 31.8225 176.133 42.5833 176.133 54.2231V88.8231C176.133 100.463 169.929 111.223 159.851 117.08L127.082 136.109C122.077 139.014 116.39 140.545 110.599 140.545C104.809 140.545 99.1215 139.014 94.1163 136.109L61.3476 117.08C51.2617 111.223 45.0574 100.463 45.0574 88.8231Z" fill="#0D47A1"/>
<path d="M110.588 96.9533C109.584 96.9533 108.768 97.7668 108.775 98.7697C108.775 99.2514 108.967 99.7133 109.309 100.054C109.65 100.395 110.113 100.586 110.596 100.586C111.078 100.586 111.541 100.394 111.883 100.054C112.224 99.7132 112.416 99.2514 112.416 98.7697C112.416 98.5306 112.368 98.294 112.276 98.0733C112.184 97.8525 112.049 97.6521 111.88 97.4834C111.71 97.3147 111.508 97.181 111.287 97.0901C111.065 96.9991 110.828 96.9526 110.588 96.9533M110.596 71.5226V38.8267V71.5226Z" stroke="white" stroke-width="20" stroke-linecap="round" stroke-linejoin="round"/>
</svg>
