<svg width="274" height="182" viewBox="0 0 274 182" fill="none" xmlns="http://www.w3.org/2000/svg">
<path d="M190.484 161.195H155.881L153.01 153.473C151.993 150.738 149.913 148.539 147.252 147.336C144.746 146.203 141.373 144.145 138.104 140.479C131.741 133.343 128.365 125.688 128.365 125.688L149.81 125.583C149.81 125.583 147.88 113.596 158.538 97.6778C159.677 95.9724 160.2 93.9296 160.02 91.8869L159.01 80.2768C159.01 80.2768 151.767 72.1887 156.21 62.1553C156.21 62.1553 160.46 56.277 162.146 58.4286C162.146 58.4286 174.981 88.97 176.15 93.5112C177.318 98.0524 178.877 100.907 177.318 115.179C176.906 118.958 176.757 122.108 176.762 124.7C176.774 129.674 177.884 134.584 180.013 139.079L190.484 161.195Z" fill="#F8AE9D"/>
<path d="M107.192 75.4462C106.747 75.2914 106.304 75.1278 105.865 74.9554L105.994 74.6284C106.417 74.7949 106.859 74.9578 107.308 75.1144L107.192 75.4462Z" fill="#31446C"/>
<path d="M108.97 42.5106C108.97 42.5106 102.335 38.075 100.82 40.9976C99.3054 43.9196 109.44 54.2593 109.44 54.2593L108.97 42.5106ZM108.97 61.9783C108.97 61.9783 102.335 57.5432 100.82 60.4652C99.3057 63.3872 109.44 73.727 109.44 73.727L108.97 61.9783ZM108.97 75.1396C108.97 75.1396 102.335 70.7046 100.82 73.6266C99.3057 76.5486 109.44 86.8883 109.44 86.8883L108.97 75.1396Z" fill="#F8AE9D"/>
<path d="M114.08 32.5732H154.316C157.313 32.5732 159.742 34.9999 159.742 37.9947V120.162C159.742 123.181 157.287 125.584 154.316 125.584H114.08C111.084 125.584 108.654 123.158 108.654 120.162V37.9941C108.654 34.9729 111.112 32.5732 114.08 32.5732Z" fill="#31446C"/>
<path d="M111.25 40.0011H157.04V116.502H111.25V40.0011ZM124.75 37.5032H143.572C143.677 37.5032 143.777 37.4617 143.851 37.3878C143.925 37.3139 143.966 37.2137 143.966 37.1092V36.9162C143.966 36.8117 143.925 36.7115 143.851 36.6376C143.777 36.5637 143.677 36.5222 143.572 36.5222H124.75C124.532 36.5222 124.355 36.6991 124.355 36.9162V37.1092C124.355 37.3264 124.532 37.5032 124.75 37.5032Z" fill="white"/>
<path d="M160.654 87.2834C160.654 87.2834 160.378 88.3098 159.752 88.8161L159.01 80.2773C159.01 80.2773 153.681 74.3274 154.969 66.3039C155.41 63.5569 156.777 61.0293 158.868 59.1926C160.062 58.144 161.373 57.4433 162.145 58.43C162.145 58.43 168.182 72.7922 172.352 83.283L160.654 87.2834Z" fill="#F8AE9D"/>
<path d="M132.363 120.889C132.363 121.398 132.565 121.886 132.925 122.246C133.285 122.606 133.773 122.808 134.282 122.808C134.792 122.808 135.28 122.606 135.64 122.246C136 121.886 136.202 121.398 136.202 120.889C136.202 120.38 136 119.891 135.64 119.531C135.28 119.171 134.792 118.969 134.282 118.969C133.773 118.969 133.285 119.171 132.925 119.531C132.565 119.891 132.363 120.38 132.363 120.889Z" fill="white"/>
<path d="M82.5871 112.653H63.3534C60.3612 112.653 57.9355 115.078 57.9355 118.071V137.304C57.9355 140.297 60.3612 142.722 63.3534 142.722H82.5871C85.5793 142.722 88.005 140.297 88.005 137.304V118.071C88.005 115.078 85.5793 112.653 82.5871 112.653Z" fill="url(#paint0_linear_6865_24407)"/>
<path d="M223.793 107.589H201.32C197.824 107.589 194.989 110.423 194.989 113.919V136.392C194.989 139.888 197.824 142.723 201.32 142.723H223.793C227.289 142.723 230.123 139.888 230.123 136.392V113.919C230.123 110.423 227.289 107.589 223.793 107.589Z" fill="url(#paint1_linear_6865_24407)"/>
<path d="M201.636 62.959H193.09C189.594 62.959 186.76 65.7933 186.76 69.2896V77.8354C186.76 81.3316 189.594 84.1659 193.09 84.1659H201.636C205.132 84.1659 207.967 81.3316 207.967 77.8354V69.2896C207.967 65.7933 205.132 62.959 201.636 62.959Z" fill="url(#paint2_linear_6865_24407)"/>
<path d="M111.05 138.608H101.993C98.2885 138.608 95.285 141.611 95.285 145.316V154.372C95.285 158.077 98.2885 161.081 101.993 161.081H111.05C114.755 161.081 117.758 158.077 117.758 154.372V145.316C117.758 141.611 114.755 138.608 111.05 138.608Z" fill="url(#paint3_linear_6865_24407)"/>
<path d="M188.659 29.408H180.113C176.617 29.408 173.783 32.2423 173.783 35.7385V44.2843C173.783 47.7806 176.617 50.6149 180.113 50.6149H188.659C192.155 50.6149 194.989 47.7806 194.989 44.2843V35.7385C194.989 32.2423 192.155 29.408 188.659 29.408Z" fill="url(#paint4_linear_6865_24407)"/>
<path d="M75.3442 60.4268H61.7339C58.2376 60.4268 55.4033 63.261 55.4033 66.7573V80.3676C55.4033 83.8639 58.2376 86.6982 61.7339 86.6982H75.3442C78.8404 86.6982 81.6747 83.8639 81.6747 80.3676V66.7573C81.6747 63.261 78.8404 60.4268 75.3442 60.4268Z" fill="url(#paint5_linear_6865_24407)"/>
<path d="M181.499 44.8175L188.525 37.7922C188.781 37.5363 188.781 37.1215 188.525 36.8657C188.269 36.6099 187.854 36.6099 187.598 36.8658L180.573 43.8912C180.317 44.147 180.317 44.5618 180.573 44.8176C180.829 45.0735 181.243 45.0734 181.499 44.8175Z" fill="#0D47A1"/>
<path d="M182.187 39.7867L184.213 37.7609C184.469 37.505 184.469 37.0902 184.213 36.8344C183.957 36.5786 183.542 36.5786 183.286 36.8345L181.261 38.8604C181.005 39.1162 181.005 39.5311 181.26 39.7869C181.516 40.0427 181.931 40.0426 182.187 39.7867Z" fill="#0D47A1"/>
<path d="M216.85 118.662L207.329 128.183C206.982 128.53 206.982 129.092 207.329 129.439C207.675 129.785 208.238 129.785 208.584 129.439L218.106 119.917C218.452 119.57 218.452 119.008 218.106 118.662C217.759 118.315 217.197 118.315 216.85 118.662Z" fill="#0D47A1"/>
<path d="M215.918 125.479L213.172 128.225C212.825 128.572 212.825 129.134 213.172 129.481C213.519 129.828 214.081 129.828 214.428 129.481L217.174 126.735C217.52 126.388 217.52 125.826 217.174 125.479C216.827 125.133 216.265 125.133 215.918 125.479Z" fill="#0D47A1"/>
<path d="M214.47 96.9993L207.971 97.1576L208.13 90.6593L214.628 90.501L214.47 96.9993Z" stroke="#0D47A1" stroke-width="7.548" stroke-linecap="round" stroke-linejoin="round"/>
<path d="M199.421 53.6217C199.421 54.7581 200.342 55.6792 201.478 55.6792C202.614 55.6792 203.536 54.7581 203.536 53.6217C203.536 52.4854 202.614 51.5642 201.478 51.5642C200.342 51.5642 199.421 52.4854 199.421 53.6217Z" fill="#0D47A1"/>
<path d="M73.1833 53.3147L79.9051 46.5928C80.1499 46.3481 80.1499 45.9513 79.9051 45.7065L79.9049 45.7063C79.6602 45.4616 79.2634 45.4616 79.0186 45.7063L72.2968 52.4282C72.052 52.6729 72.052 53.0697 72.2968 53.3144L72.297 53.3147C72.5417 53.5594 72.9385 53.5594 73.1833 53.3147Z" fill="#0D47A1"/>
<path d="M73.8412 48.5018L75.7798 46.5632C76.0245 46.3185 76.0245 45.9217 75.7798 45.677L75.7796 45.6768C75.5348 45.432 75.138 45.432 74.8933 45.6768L72.9547 47.6153C72.71 47.8601 72.71 48.2569 72.9547 48.5016L72.955 48.5018C73.1997 48.7465 73.5965 48.7465 73.8412 48.5018Z" fill="#0D47A1"/>
<path d="M76.8305 121.969L67.7092 131.09C67.377 131.423 67.377 131.961 67.7092 132.293C68.0413 132.625 68.5799 132.625 68.912 132.293L78.0334 123.172C78.3656 122.84 78.3656 122.301 78.0334 121.969C77.7013 121.637 77.1627 121.637 76.8305 121.969Z" fill="#0D47A1"/>
<path d="M75.9377 128.5L73.3072 131.131C72.975 131.463 72.975 132.001 73.3072 132.333C73.6394 132.666 74.1779 132.666 74.5101 132.333L77.1406 129.703C77.4727 129.371 77.4727 128.832 77.1406 128.5C76.8084 128.168 76.2699 128.168 75.9377 128.5Z" fill="#0D47A1"/>
<path d="M72.3129 100.092C72.3129 101.966 70.7944 103.482 68.9186 103.482C67.0431 103.482 65.5319 101.958 65.5319 100.092C65.5319 98.2181 67.0504 96.7012 68.9262 96.7012C70.802 96.7012 72.3129 98.2181 72.3129 100.092Z" stroke="#0D47A1" stroke-width="5.612" stroke-miterlimit="10"/>
<path d="M76.2329 66.7537H76.3018C76.7104 72.1803 81.015 72.2637 81.015 72.2637C81.015 72.2637 76.2681 72.3505 76.2681 78.6207C76.2681 72.3505 71.5215 72.2637 71.5215 72.2637C71.5215 72.2637 75.8243 72.1803 76.2329 66.7537Z" fill="#0D47A1"/>
<path d="M124.089 92.5297H143.713M118.707 77.3369H148.935H118.707ZM118.707 84.9333H148.935H118.707Z" stroke="#0D47A1" stroke-width="5" stroke-linecap="round" stroke-linejoin="round"/>
<path fill-rule="evenodd" clip-rule="evenodd" d="M127.887 68.9286V69.8092C127.887 70.2954 128.277 70.6901 128.757 70.6901H139.203C139.683 70.6901 140.073 70.2954 140.073 69.8092V68.9144C140.073 66.2493 137.063 64.5179 133.98 64.5179C130.897 64.5179 127.887 66.2502 127.887 68.9144V68.9286ZM131.798 56.7173C130.592 57.9225 130.592 59.8766 131.798 61.0817C133.003 62.2868 134.957 62.2868 136.162 61.0817C137.367 59.8766 137.367 57.9225 136.162 56.7173C134.957 55.5122 133.003 55.5122 131.798 56.7173Z" fill="#0D47A1"/>
<defs>
<linearGradient id="paint0_linear_6865_24407" x1="73.6115" y1="159.581" x2="72.6842" y2="79.9423" gradientUnits="userSpaceOnUse">
<stop stop-color="white"/>
<stop offset="1" stop-color="#EEEEEE"/>
</linearGradient>
<linearGradient id="paint1_linear_6865_24407" x1="213.306" y1="162.421" x2="212.222" y2="69.3689" gradientUnits="userSpaceOnUse">
<stop stop-color="white"/>
<stop offset="1" stop-color="#EEEEEE"/>
</linearGradient>
<linearGradient id="paint2_linear_6865_24407" x1="197.816" y1="96.0557" x2="197.162" y2="39.8896" gradientUnits="userSpaceOnUse">
<stop stop-color="white"/>
<stop offset="1" stop-color="#EEEEEE"/>
</linearGradient>
<linearGradient id="paint3_linear_6865_24407" x1="107.001" y1="173.681" x2="106.308" y2="114.161" gradientUnits="userSpaceOnUse">
<stop stop-color="white"/>
<stop offset="1" stop-color="#EEEEEE"/>
</linearGradient>
<linearGradient id="paint4_linear_6865_24407" x1="184.838" y1="62.5047" x2="184.184" y2="6.33825" gradientUnits="userSpaceOnUse">
<stop stop-color="white"/>
<stop offset="1" stop-color="#EEEEEE"/>
</linearGradient>
<linearGradient id="paint5_linear_6865_24407" x1="69.0991" y1="101.427" x2="68.2889" y2="31.8482" gradientUnits="userSpaceOnUse">
<stop stop-color="white"/>
<stop offset="1" stop-color="#EEEEEE"/>
</linearGradient>
</defs>
</svg>
