<svg width="151" height="284" viewBox="0 0 151 284" fill="none" xmlns="http://www.w3.org/2000/svg">
<g opacity="0.7">
<path d="M-4.2782 283.853C81.2287 283.853 150.546 217.036 150.546 134.612C150.546 52.1893 81.2287 -14.6279 -4.2782 -14.6279C-89.785 -14.6279 -159.102 52.1893 -159.102 134.612C-159.102 217.036 -89.785 283.853 -4.2782 283.853Z" fill="#E11900"/>
<path d="M-4.27783 250.187C61.9405 250.187 115.621 198.443 115.621 134.612C115.621 70.7822 61.9405 19.0375 -4.27783 19.0375C-70.4962 19.0375 -124.177 70.7822 -124.177 134.612C-124.177 198.443 -70.4962 250.187 -4.27783 250.187Z" fill="white"/>
<path d="M-4.2785 221.147C45.3014 221.147 85.4939 182.404 85.4939 134.612C85.4939 86.8206 45.3014 48.0776 -4.2785 48.0776C-53.8584 48.0776 -94.0508 86.8206 -94.0508 134.612C-94.0508 182.404 -53.8584 221.147 -4.2785 221.147Z" fill="#E11900"/>
<path d="M-4.21755 188.536C26.6776 188.536 51.7232 164.394 51.7232 134.613C51.7232 104.832 26.6776 80.6893 -4.21755 80.6893C-35.1127 80.6893 -60.1582 104.832 -60.1582 134.613C-60.1582 164.394 -35.1127 188.536 -4.21755 188.536Z" fill="white"/>
<path d="M-4.21852 157.446C8.86412 157.446 19.4697 147.223 19.4697 134.612C19.4697 122.002 8.86412 111.779 -4.21852 111.779C-17.3012 111.779 -27.9067 122.002 -27.9067 134.612C-27.9067 147.223 -17.3012 157.446 -4.21852 157.446Z" fill="#E62552"/>
</g>
</svg>
