<svg width="153" height="300" viewBox="0 0 153 300" fill="none" xmlns="http://www.w3.org/2000/svg">
<g opacity="0.7">
<path d="M-2.67615 299.238C82.8307 299.238 152.148 232.421 152.148 149.998C152.148 67.5749 82.8307 0.757751 -2.67615 0.757751C-88.183 0.757751 -157.5 67.5749 -157.5 149.998C-157.5 232.421 -88.183 299.238 -2.67615 299.238Z" fill="#E11900"/>
<path d="M-2.67578 265.573C63.5426 265.573 117.223 213.828 117.223 149.998C117.223 86.1678 63.5426 34.4232 -2.67578 34.4232C-68.8941 34.4232 -122.575 86.1678 -122.575 149.998C-122.575 213.828 -68.8941 265.573 -2.67578 265.573Z" fill="white"/>
<path d="M-2.67645 236.533C46.9034 236.533 87.0959 197.79 87.0959 149.998C87.0959 102.206 46.9034 63.4633 -2.67645 63.4633C-52.2563 63.4633 -92.4487 102.206 -92.4487 149.998C-92.4487 197.79 -52.2563 236.533 -2.67645 236.533Z" fill="#E11900"/>
<path d="M-2.6155 203.921C28.2797 203.921 53.3252 179.779 53.3252 149.998C53.3252 120.217 28.2797 96.0749 -2.6155 96.0749C-33.5107 96.0749 -58.5562 120.217 -58.5562 149.998C-58.5562 179.779 -33.5107 203.921 -2.6155 203.921Z" fill="white"/>
<path d="M-2.61647 172.832C10.4662 172.832 21.0718 162.609 21.0718 149.998C21.0718 137.387 10.4662 127.164 -2.61647 127.164C-15.6991 127.164 -26.3047 137.387 -26.3047 149.998C-26.3047 162.609 -15.6991 172.832 -2.61647 172.832Z" fill="#E62552"/>
</g>
</svg>
