<svg width="441" height="290" viewBox="0 0 441 290" fill="none" xmlns="http://www.w3.org/2000/svg">
<path d="M109.026 179.331C110.291 211.036 178.83 269.386 253.537 238.509C288.283 224.147 283.508 206.1 308.431 179.422C323.286 163.521 345.561 150.473 350.055 128.945C353.939 110.363 348.659 91.2666 337.749 79.539C313.211 53.164 267.277 37.8051 228.092 86.5793C188.907 135.353 105.773 97.5616 109.026 179.331Z" fill="url(#paint0_linear_6864_24391)"/>
<path d="M96.1718 93.8386C102.166 104.403 115.292 105.855 136.322 103.847C152.137 102.335 166.56 101.164 182.377 92.6467C193.447 86.6896 202.211 78.63 208.607 70.802C215.538 62.3214 225.212 52.6431 220.47 43.0277C213.952 29.8192 176.262 18.6948 139.665 36.8869C99.4614 56.8766 90.3086 83.5131 96.1718 93.8386Z" fill="url(#paint1_linear_6864_24391)"/>
<path d="M47.4078 125.531C62.9454 133.143 83.5677 123.355 83.5677 123.355C83.5677 123.355 78.9847 101.229 63.4387 93.6273C47.9011 86.0148 27.2871 95.7922 27.2871 95.7922C27.2871 95.7922 31.8701 117.918 47.4078 125.531Z" fill="url(#paint2_linear_6864_24391)"/>
<path d="M395.549 149.246C387.108 154.244 374.996 149.624 374.996 149.624C374.996 149.624 376.58 136.904 385.027 131.913C393.469 126.916 405.575 131.53 405.575 131.53C405.575 131.53 403.991 144.249 395.549 149.246Z" fill="url(#paint3_linear_6864_24391)"/>
<path d="M85.9345 234.311C88.5702 234.311 90.7069 232.201 90.7069 229.598C90.7069 226.995 88.5702 224.884 85.9345 224.884C83.2988 224.884 81.1621 226.995 81.1621 229.598C81.1621 232.201 83.2988 234.311 85.9345 234.311Z" fill="#90AAD4"/>
<path d="M396.743 201.477C400.55 201.477 403.636 198.429 403.636 194.669C403.636 190.909 400.55 187.86 396.743 187.86C392.936 187.86 389.85 190.909 389.85 194.669C389.85 198.429 392.936 201.477 396.743 201.477Z" fill="#90AAD4"/>
<path d="M61.6348 188.18C64.5321 188.18 66.8809 185.86 66.8809 182.998C66.8809 180.137 64.5321 177.817 61.6348 177.817C58.7374 177.817 56.3887 180.137 56.3887 182.998C56.3887 185.86 58.7374 188.18 61.6348 188.18Z" fill="#90AAD4"/>
<path d="M91.0067 51.4763C94.2281 51.4763 96.8395 48.8971 96.8395 45.7154C96.8395 42.5338 94.2281 39.9546 91.0067 39.9546C87.7853 39.9546 85.1738 42.5338 85.1738 45.7154C85.1738 48.8971 87.7853 51.4763 91.0067 51.4763Z" fill="#90AAD4"/>
<path d="M410.386 82.0979C410.386 84.955 412.731 87.271 415.624 87.271C418.516 87.271 420.861 84.955 420.861 82.0979C420.861 79.2409 418.516 76.9248 415.624 76.9248C412.731 76.9248 410.386 79.2409 410.386 82.0979Z" fill="#90AAD4"/>
<path d="M262.085 39.1643C265.933 39.1643 269.053 36.0832 269.053 32.2826C269.053 28.4819 265.933 25.4009 262.085 25.4009C258.237 25.4009 255.117 28.4819 255.117 32.2826C255.117 36.0832 258.237 39.1643 262.085 39.1643Z" fill="#90AAD4"/>
<path d="M80.7273 158.532C83.6876 158.532 86.0874 156.636 86.0874 154.297C86.0874 151.958 83.6876 150.062 80.7273 150.062C77.767 150.062 75.3672 151.958 75.3672 154.297C75.3672 156.636 77.767 158.532 80.7273 158.532Z" fill="#90AAD4"/>
<path d="M357.088 51.394H357.011C356.559 57.7214 351.795 57.8185 351.795 57.8185C351.795 57.8185 357.048 57.92 357.048 65.2309C357.048 57.92 362.302 57.8185 362.302 57.8185C362.302 57.8185 357.54 57.7214 357.088 51.394ZM365.069 217.015H364.996C364.562 223.322 359.988 223.42 359.988 223.42C359.988 223.42 365.032 223.521 365.032 230.81C365.032 223.521 370.076 223.42 370.076 223.42C370.076 223.42 365.503 223.322 365.069 217.015Z" fill="#90AAD4"/>
<path d="M219.951 264.132C286.425 264.132 340.313 210.909 340.313 145.255C340.313 79.6014 286.425 26.3784 219.951 26.3784C153.476 26.3784 99.5879 79.6014 99.5879 145.255C99.5879 210.909 153.476 264.132 219.951 264.132Z" fill="#0D47A1"/>
<mask id="mask0_6864_24391" style="mask-type:alpha" maskUnits="userSpaceOnUse" x="99" y="26" width="242" height="239">
<path d="M219.953 264.132C286.427 264.132 340.315 210.909 340.315 145.255C340.315 79.6014 286.427 26.3784 219.953 26.3784C153.478 26.3784 99.5898 79.6014 99.5898 145.255C99.5898 210.909 153.478 264.132 219.953 264.132Z" fill="#666AF6"/>
</mask>
<g mask="url(#mask0_6864_24391)">
<path d="M284.328 91.8335H156.112C145.301 91.8335 136.537 100.489 136.537 111.167V247.467C136.537 258.144 145.301 266.8 156.112 266.8H284.328C295.139 266.8 303.903 258.144 303.903 247.467V111.167C303.903 100.489 295.139 91.8335 284.328 91.8335Z" fill="white"/>
<path d="M193.302 226.684H247.134M180.348 183.914H260.037H180.348ZM180.348 205.266H260.037H180.348Z" stroke="#90AAD4" stroke-width="10.875" stroke-linecap="round" stroke-linejoin="round"/>
<path d="M248.168 124.7L212.901 159.468L191.74 138.608" stroke="#0D47A1" stroke-width="14.5" stroke-linecap="round" stroke-linejoin="round"/>
</g>
<defs>
<linearGradient id="paint0_linear_6864_24391" x1="201.631" y1="361.49" x2="267.33" y2="-170" gradientUnits="userSpaceOnUse">
<stop stop-color="white"/>
<stop offset="1" stop-color="#EEEEEE"/>
</linearGradient>
<linearGradient id="paint1_linear_6864_24391" x1="136.549" y1="162.307" x2="188.72" y2="-75.0592" gradientUnits="userSpaceOnUse">
<stop stop-color="white"/>
<stop offset="1" stop-color="#EEEEEE"/>
</linearGradient>
<linearGradient id="paint2_linear_6864_24391" x1="107.074" y1="149.275" x2="-19.8519" y2="47.6215" gradientUnits="userSpaceOnUse">
<stop stop-color="white"/>
<stop offset="1" stop-color="#EEEEEE"/>
</linearGradient>
<linearGradient id="paint3_linear_6864_24391" x1="362.882" y1="165.332" x2="430.025" y2="102.167" gradientUnits="userSpaceOnUse">
<stop stop-color="white"/>
<stop offset="1" stop-color="#EEEEEE"/>
</linearGradient>
</defs>
</svg>
