<svg width="594" height="322" viewBox="0 0 594 322" fill="none" xmlns="http://www.w3.org/2000/svg">
<path d="M456.511 148.376C456.469 148.376 456.449 148.376 456.407 148.356C456.138 148.293 455.972 148.045 456.034 147.775C458.313 136.789 454.522 128.394 450.833 120.268C448.969 116.122 447.021 111.852 445.985 107.354C444.824 102.317 444.949 97.4873 446.358 92.6367C446.544 92.0149 446.731 91.3723 446.917 90.709C449.341 82.4589 452.636 71.141 450.75 63.7615C448.678 55.6566 447.87 49.3758 450.626 45.0435C450.771 44.8155 451.082 44.7533 451.31 44.8984C451.538 45.0435 451.6 45.3544 451.455 45.5824C448.906 49.6038 449.714 55.6773 451.704 63.5335C453.651 71.1825 450.295 82.6455 447.85 90.9992C447.663 91.6625 447.477 92.3051 447.29 92.9269C444.265 103.395 447.891 111.396 451.724 119.874C455.475 128.145 459.349 136.706 456.987 148.003C456.946 148.211 456.739 148.376 456.511 148.376Z" fill="#3D6CB4"/>
<path d="M450.544 41.748L448.72 45.9353C448.575 46.2462 448.782 46.6193 449.073 46.6193H451.994C452.284 46.6193 452.491 46.2462 452.346 45.9353L450.544 41.748Z" fill="#3D6CB4"/>
<path d="M450.937 43.489C459.989 43.489 467.327 33.7536 467.327 21.7445C467.327 9.73533 459.989 0 450.937 0C441.885 0 434.547 9.73533 434.547 21.7445C434.547 33.7536 441.885 43.489 450.937 43.489Z" fill="#3D6CB4"/>
<path d="M225.562 188.673C225.521 188.673 225.5 188.673 225.458 188.653C225.189 188.59 225.023 188.342 225.085 188.072C227.365 177.086 223.573 168.691 219.885 160.565C218.02 156.419 216.072 152.149 215.036 147.651C213.876 142.614 214 137.784 215.409 132.934C215.595 132.312 215.782 131.669 215.968 131.006C218.393 122.756 221.687 111.438 219.802 104.058C217.73 95.9535 216.922 89.6727 219.677 85.3403C219.822 85.1123 220.133 85.0501 220.361 85.1952C220.589 85.3403 220.651 85.6513 220.506 85.8793C217.958 89.9007 218.766 95.9742 220.755 103.83C222.703 111.479 219.346 122.942 216.901 131.296C216.714 131.959 216.528 132.602 216.341 133.224C213.316 143.692 216.942 151.693 220.776 160.171C224.526 168.442 228.401 177.003 226.039 188.3C225.997 188.507 225.79 188.673 225.562 188.673Z" fill="#3D6CB4"/>
<path d="M219.595 82.043L217.772 86.2302C217.627 86.5411 217.834 86.9142 218.124 86.9142H221.045C221.336 86.9142 221.543 86.5411 221.398 86.2302L219.595 82.043Z" fill="#3D6CB4"/>
<path d="M219.988 83.8054C229.04 83.8054 236.378 74.07 236.378 62.0609C236.378 50.0517 229.04 40.3164 219.988 40.3164C210.937 40.3164 203.599 50.0517 203.599 62.0609C203.599 74.07 210.937 83.8054 219.988 83.8054Z" fill="#3D6CB4"/>
<path d="M296.882 341.07C460.845 341.07 593.764 329.952 593.764 316.237C593.764 302.522 460.845 291.404 296.882 291.404C132.919 291.404 0 302.522 0 316.237C0 329.952 132.919 341.07 296.882 341.07Z" fill="#3D6CB4"/>
<path d="M197.34 209.238L192.139 207.724L188.327 211.58C187.954 211.953 187.312 211.704 187.291 211.186L187.125 205.776L182.277 203.351C181.8 203.123 181.841 202.418 182.339 202.252L187.436 200.428L188.244 195.059C188.327 194.541 188.99 194.354 189.301 194.79L192.616 199.081L197.962 198.189C198.48 198.106 198.853 198.687 198.563 199.122L195.517 203.599L198.003 208.408C198.273 208.844 197.838 209.383 197.34 209.238Z" fill="#3D6CB4"/>
<path d="M52.0284 67.909L46.9519 66.0226L42.87 69.6087C42.4763 69.9611 41.8547 69.6502 41.8754 69.132L42.1033 63.7218L37.4412 60.9441C36.9854 60.6746 37.0682 59.9906 37.5863 59.8455L42.8078 58.3945L44.0096 53.1086C44.1339 52.5904 44.797 52.4661 45.087 52.9014L48.0915 57.4202L53.4788 56.9227C53.9968 56.8813 54.3284 57.4824 53.9968 57.897L50.6194 62.1464L52.7536 67.1213C52.9815 67.5773 52.5257 68.0748 52.0284 67.909Z" fill="#3D6CB4"/>
<path d="M347.854 269.557L344.062 265.681L338.861 267.194C338.364 267.339 337.929 266.8 338.157 266.344L340.664 261.535L337.639 257.037C337.348 256.601 337.721 256.021 338.239 256.104L343.585 256.995L346.901 252.704C347.232 252.29 347.895 252.456 347.957 252.974L348.745 258.343L353.842 260.188C354.339 260.374 354.381 261.058 353.904 261.286L349.055 263.691L348.89 269.101C348.869 269.681 348.227 269.93 347.854 269.557Z" fill="#3D6CB4"/>
<path d="M528.992 69.6085L525.2 65.7322L519.999 67.2454C519.502 67.3905 519.067 66.8515 519.294 66.3955L521.802 61.5864L518.756 57.109C518.466 56.6737 518.839 56.0933 519.357 56.1762L524.702 57.0676L528.018 52.7767C528.349 52.3621 529.012 52.528 529.074 53.0462L529.862 58.4149L534.959 60.2598C535.456 60.4464 535.498 61.1304 535.021 61.3584L530.173 63.763L530.007 69.1732C530.007 69.7328 529.365 69.9816 528.992 69.6085Z" fill="#3D6CB4"/>
<path d="M369.486 36.7107L364.119 35.9437L360.908 40.2968C360.597 40.7113 359.934 40.5662 359.83 40.048L358.898 34.7L353.759 32.9795C353.262 32.8137 353.2 32.1296 353.676 31.8809L358.463 29.352L358.504 23.921C358.504 23.4028 359.147 23.1333 359.52 23.4857L363.415 27.2584L368.574 25.6208C369.072 25.455 369.527 25.9732 369.3 26.45L366.917 31.3212L370.066 35.7364C370.356 36.2132 370.004 36.7936 369.486 36.7107Z" fill="#3D6CB4"/>
<path d="M356.868 8.68607L353.387 8.18858L351.294 11.0077C351.087 11.2772 350.651 11.1735 350.589 10.8419L349.988 7.38016L346.652 6.26081C346.321 6.15717 346.3 5.70113 346.59 5.55603L349.698 3.91846L349.719 0.415301C349.719 0.0836411 350.133 -0.102915 350.382 0.14583L352.91 2.59182L356.267 1.53465C356.598 1.43101 356.888 1.76267 356.722 2.0736L355.168 5.22437L357.199 8.08494C357.427 8.35441 357.199 8.72753 356.868 8.68607Z" fill="#3D6CB4"/>
<path d="M372.034 228.037L369.734 225.384L366.315 226.171C365.984 226.254 365.714 225.881 365.901 225.591L367.704 222.585L365.901 219.559C365.735 219.269 365.984 218.895 366.315 218.978L369.734 219.766L372.055 217.113C372.283 216.864 372.697 216.988 372.739 217.341L373.05 220.844L376.282 222.233C376.593 222.357 376.593 222.813 376.282 222.938L373.05 224.326L372.739 227.83C372.677 228.161 372.262 228.306 372.034 228.037Z" fill="#3D6CB4"/>
<path d="M547.971 251.006L542.605 250.239L539.393 254.592C539.082 255.006 538.419 254.861 538.316 254.343L537.383 248.995L532.245 247.274C531.747 247.109 531.685 246.425 532.162 246.176L536.948 243.647L536.99 238.216C536.99 237.698 537.632 237.428 538.005 237.781L541.9 241.553L547.06 239.916C547.557 239.75 548.013 240.289 547.785 240.745L545.402 245.616L548.552 250.031C548.842 250.487 548.489 251.068 547.971 251.006Z" fill="#3D6CB4"/>
<path d="M503.505 135.338C497.185 133.14 483.759 126.362 490.12 117.2C496.481 108.059 499.175 111.893 496.73 100.886C494.285 89.9002 502.013 81.1319 509.514 83.2462C517.015 85.3606 518.983 91.3926 528.121 89.7551C537.259 88.1175 544.967 96.5955 541.589 104.079C538.233 111.541 536.803 115.127 540.056 119.211C543.33 123.294 557.896 127.564 551.949 137.473C546.003 147.381 543.226 146.821 545.381 151.838C547.536 156.854 542.75 162.658 534.337 161.974C525.904 161.29 518.258 158.181 515.067 148.811C511.876 139.442 503.505 135.338 503.505 135.338Z" fill="#2C2858"/>
<path d="M517.74 295.613L518.258 300.982L513.782 302.35L510.156 298.495L509.576 296.277L517.74 295.613Z" fill="#F37A50"/>
<path d="M503.567 187.263C503.567 187.263 496.833 230.938 498.636 249.636C500.459 268.354 509.597 296.338 509.597 296.338H517.802C517.802 296.338 517.657 292.959 517.346 281.786C516.932 267.566 517.346 255.875 511.13 248.537C514.342 234.649 522.589 187.242 522.589 187.242H503.567V187.263Z" fill="#F37A50"/>
<path d="M511.897 194.725C511.897 194.725 514.073 234.918 520.703 252.516C537.673 264.083 553.089 269.701 563.366 273.743C563.843 273.929 565.894 266.301 565.894 266.301C554.498 258.839 544.49 245.386 532.845 247.127C534.834 234.254 536.761 201.171 536.761 201.171L511.897 194.725Z" fill="#F37A50"/>
<path d="M520.994 123.273V139.794C520.994 139.794 515.482 142.738 510.716 139.794C511.442 136.125 511.877 124.434 511.877 124.434L520.994 123.273Z" fill="#DE623C"/>
<path d="M530.835 132.186H503.443C503.443 132.186 498.532 143.234 499.195 152.686C499.858 162.139 501.06 187.863 501.06 187.863C501.06 187.863 517.864 184.049 528.577 180.732C529.426 161.33 535.187 152.479 534.793 146.177C534.42 139.897 530.835 132.186 530.835 132.186Z" fill="#F595AD"/>
<path d="M516.144 125.576C523.021 125.576 528.597 118.077 528.597 108.827C528.597 99.5768 523.021 92.0781 516.144 92.0781C509.266 92.0781 503.691 99.5768 503.691 108.827C503.691 118.077 509.266 125.576 516.144 125.576Z" fill="#F37A50"/>
<path d="M529.426 108.826C522.547 107.955 516.165 104.12 512.539 99.1662C510.198 104.95 503.671 108.826 503.671 108.826C503.671 108.826 498.781 97.7567 507.67 91.7868C516.165 86.0864 536.43 89.9627 529.426 108.826Z" fill="#2C2858"/>
<path d="M521.386 112.392C522.119 112.392 522.712 111.798 522.712 111.065C522.712 110.332 522.119 109.738 521.386 109.738C520.654 109.738 520.06 110.332 520.06 111.065C520.06 111.798 520.654 112.392 521.386 112.392Z" fill="black"/>
<path d="M510.819 112.392C511.552 112.392 512.145 111.798 512.145 111.065C512.145 110.332 511.552 109.738 510.819 109.738C510.087 109.738 509.493 110.332 509.493 111.065C509.493 111.798 510.087 112.392 510.819 112.392Z" fill="black"/>
<path d="M508.499 109.884C508.706 109.884 508.934 109.78 509.038 109.573C509.369 109.013 509.763 108.682 510.219 108.599C511.006 108.433 511.773 108.951 511.793 108.951C512.083 109.158 512.477 109.075 512.684 108.785C512.892 108.495 512.809 108.101 512.519 107.894C512.477 107.852 511.296 107.044 509.97 107.334C509.162 107.521 508.478 108.039 507.96 108.91C507.774 109.221 507.877 109.594 508.188 109.78C508.271 109.863 508.395 109.884 508.499 109.884Z" fill="#2C2858"/>
<path d="M523.893 109.946C524.038 109.946 524.162 109.904 524.287 109.8C524.556 109.572 524.597 109.179 524.39 108.909C523.561 107.873 522.629 107.292 521.634 107.23C520.35 107.126 519.479 107.914 519.438 107.956C519.169 108.184 519.169 108.598 519.397 108.847C519.624 109.096 520.039 109.116 520.288 108.888C520.308 108.868 520.826 108.432 521.531 108.495C522.152 108.557 522.774 108.951 523.375 109.718C523.52 109.863 523.706 109.946 523.893 109.946Z" fill="#2C2858"/>
<path d="M514.818 112.807C513.098 114.05 512.58 114.548 511.917 114.962C512.373 116.496 514.776 117.243 515.46 117.077C513.782 116.248 513.554 115.128 513.554 115.128L514.818 112.807Z" fill="#DE623C"/>
<path d="M531.576 113.97C533.001 112.164 533.072 109.843 531.734 108.786C530.396 107.729 528.155 108.336 526.73 110.142C525.304 111.948 525.234 114.269 526.572 115.326C527.91 116.383 530.15 115.776 531.576 113.97Z" fill="#F37A50"/>
<path d="M527.976 114.028C528.038 114.028 528.079 114.007 528.141 113.986C528.349 113.903 528.452 113.655 528.369 113.427C528.059 112.701 528.059 112.141 528.349 111.706C528.805 111.063 529.841 110.856 530.607 110.877C530.835 110.877 531.042 110.711 531.042 110.462C531.042 110.234 530.877 110.027 530.628 110.027C529.592 109.986 528.266 110.297 527.644 111.209C527.333 111.665 527.064 112.494 527.582 113.738C527.665 113.924 527.831 114.028 527.976 114.028Z" fill="#DE623C"/>
<path d="M519.439 119.336C519.625 119.045 519.356 118.693 519.024 118.755C518.175 118.942 516.787 119.191 515.44 119.315C514.093 119.439 512.663 119.419 511.793 119.398C511.461 119.398 511.275 119.792 511.503 120.04C512.207 120.828 513.596 121.968 515.668 121.802C517.719 121.616 518.9 120.227 519.439 119.336Z" fill="white"/>
<path d="M513.658 301.747C512.539 298.824 510.156 298.492 510.156 298.492C505.515 304.669 494.139 300.876 494.512 309.25C511.835 309.147 519.025 309.25 519.025 309.25C519.004 307.323 518.652 302.762 518.258 300.98L517.346 301.145L513.658 301.747Z" fill="#4364CC"/>
<path d="M565.086 265.764L571.198 268.873L570.349 273.35L565.396 274.698L563.076 273.62L565.086 265.764Z" fill="#F37A50"/>
<path d="M569.789 273.165C566.764 272.792 565.417 274.699 565.417 274.699C568.628 281.477 560.216 289.541 567.572 293.003C575.321 278.078 578.678 271.942 578.678 271.942C577.02 271.092 572.938 269.31 571.239 268.854L570.97 269.703L569.789 273.165Z" fill="#4364CC"/>
<path d="M530.152 235.376C535.208 234.464 540.035 234.464 542.874 234.526C541.072 228.514 541.59 191.369 530.214 178.6H501.537C491.384 196.032 495.217 221.84 488.939 232.411C491.384 233.593 498.263 236.557 507.256 237.469C517.202 238.485 521.615 236.91 530.152 235.376Z" fill="#070635"/>
<path d="M521.221 132.041L533.343 130.963C533.343 130.963 534.814 146.178 540.595 183.801C532.431 185.832 526.733 185.956 526.733 185.956L521.221 132.041Z" fill="#E62552"/>
<path d="M511.524 132.063L506.158 185.957C506.158 185.957 503.713 186.786 494.554 184.05C498.988 161.601 497.787 131.586 501.972 131.42C506.054 131.752 511.524 132.063 511.524 132.063Z" fill="#E62552"/>
<path d="M499.859 146.015C492.109 145.31 476.693 137.246 470.436 131.131L477.916 124.125C477.916 124.125 497.952 129.556 502.863 132.168C506.593 135.215 507.173 144.543 499.859 146.015Z" fill="#E62552"/>
<path d="M460.324 85.9209C462.686 82.8531 464.013 84.9881 465.235 85.61C468.654 87.3719 466.271 79.3292 470.042 80.4278C469.048 86.1282 471.327 85.9831 469.607 91.4762L470.021 93.7564L464.531 97.7985L463.909 95.2696C460.345 93.6942 456.512 90.7093 460.324 85.9209Z" fill="#DE623C"/>
<path d="M459.475 87.1651C460.221 85.3202 461.547 84.4289 462.168 84.1387C462.893 83.807 465.131 84.6154 465.504 85.4653C465.877 86.3152 465.608 87.248 464.924 87.5796C464.738 87.6625 464.572 87.6833 464.344 87.6625C464.655 88.5539 464.385 89.4867 463.764 89.7769C463.639 89.8183 463.515 89.8598 463.412 89.8805C463.474 90.5646 463.204 91.2072 462.707 91.4144C462.521 91.4974 462.293 91.5181 462.127 91.4974C462.251 92.0778 462.065 92.9484 461.588 93.1557C461.112 93.819 460.2 93.4873 459.661 92.9484C458.584 91.8083 458.19 90.2951 459.475 87.1651Z" fill="#F37A50"/>
<path d="M470.229 93.1133C470.229 93.1133 476.901 115.376 478.849 123.854C479.616 127.212 473.089 130.612 470.436 131.13C467.577 128.311 461.982 119.377 463.599 96.4713C465.629 94.1497 470.229 93.1133 470.229 93.1133Z" fill="#E62552"/>
<path d="M534.648 145.517C542.397 144.812 557.813 136.748 564.071 130.633L556.591 123.627C556.591 123.627 536.554 129.058 531.643 131.67C527.934 134.696 527.354 144.045 534.648 145.517Z" fill="#E62552"/>
<path d="M574.202 85.4033C571.84 82.3355 570.514 84.4705 569.291 85.0924C565.872 86.8544 568.255 78.8116 564.484 79.9102C565.479 85.6106 563.199 85.4655 564.919 90.9586L564.505 93.2388L569.996 97.2809L570.617 94.752C574.181 93.1766 577.994 90.2124 574.202 85.4033Z" fill="#DE623C"/>
<path d="M575.051 86.6475C574.305 84.8026 572.979 83.9113 572.357 83.6211C571.632 83.2894 569.394 84.0978 569.022 84.9477C568.649 85.7976 568.918 86.7304 569.602 87.0621C569.788 87.145 569.954 87.1657 570.182 87.145C569.871 88.0363 570.14 88.9691 570.762 89.2593C570.886 89.3008 571.011 89.3422 571.114 89.3629C571.052 90.047 571.321 90.6896 571.819 90.8969C572.005 90.9798 572.233 91.0005 572.399 90.9798C572.275 91.5602 572.461 92.4308 572.938 92.6381C573.414 93.3014 574.326 92.9698 574.865 92.4308C575.942 91.3115 576.315 89.7982 575.051 86.6475Z" fill="#F37A50"/>
<path d="M564.277 92.6172C564.277 92.6172 557.605 114.88 555.657 123.358C554.891 126.716 561.418 130.116 564.07 130.634C566.929 127.815 572.524 118.881 570.908 95.9753C568.898 93.6536 564.277 92.6172 564.277 92.6172Z" fill="#E62552"/>
<path d="M48.5063 303.821C53.8936 311.263 67.1339 306.702 66.6988 316.756C46.5585 316.631 38.1875 316.756 38.1875 316.756C38.2082 314.434 39.8659 305.811 40.3217 303.676L48.5063 303.821Z" fill="#070635"/>
<path d="M110.315 303.822C115.703 311.264 128.943 306.704 128.508 316.757C108.368 316.633 99.9966 316.757 99.9966 316.757C100.017 314.435 100.535 307.699 100.991 305.563L110.315 303.822Z" fill="#070635"/>
<path d="M99.6447 124.477C99.6447 124.477 116.014 133.597 124.116 141.371C123.121 145.641 126.892 153.642 127.949 156.316C116.304 156.316 93.5322 146.18 93.5322 146.18L99.6447 124.477Z" fill="#C4204A"/>
<path d="M95.1271 183.74L67.9419 198.043C67.9419 198.043 90.1334 239.915 102.876 252.871C105.094 255.13 117.816 251.627 118.728 248.911C122.043 239.065 95.1271 183.74 95.1271 183.74Z" fill="#2C2858"/>
<path d="M97.3855 307.615L114.273 306.537C114.169 277.786 120.364 265.971 118.997 245.428C116.448 240.329 109.3 237.344 105.135 241.117C94.091 249.118 96.9504 298.784 97.3855 307.615Z" fill="#2C2858"/>
<path d="M88.5176 191.431L55.1992 181.129C55.1992 181.129 49.584 227.209 50.993 248.394C51.2002 251.545 67.735 254.073 69.0611 251.545L88.5176 191.431Z" fill="#494C7F"/>
<path d="M38.623 305.812H53.1895C61.2497 280.917 69.0613 251.545 69.0613 251.545C69.6415 246.943 66.492 241.802 63.1146 240.558C41.8969 234.195 39.9284 299.304 38.623 305.812Z" fill="#494C7F"/>
<path d="M76.9973 109.137L83.0684 109.158L84.4567 123.502L77.3496 127.254L69.7866 123.543V107.105L76.9973 109.137Z" fill="#DE623C"/>
<path d="M78.2609 109.842C73.0808 111.853 68.5224 105.758 68.5224 105.758C65.1035 106.069 64.8134 102.67 64.8134 102.67C63.135 102.587 60.6486 101.468 60.545 98.3376C60.4621 95.6843 62.9486 95.1661 62.5134 92.1397C62.1612 89.7144 58.9702 84.3871 66.3674 81.9826C66.3674 81.9826 65.4143 77.5466 69.662 75.3494C74.8628 72.6339 77.1006 75.5981 79.6699 75.5774C82.5501 75.5359 87.7302 71.5353 90.113 77.6088C90.113 77.6088 94.0084 76.6967 96.5156 79.0598C98.857 81.2571 98.7534 84.8639 97.9453 86.3771C97.9453 86.3771 101.323 86.6258 102.794 89.3827C103.788 91.2276 103.664 93.9845 102.027 95.7257C100.991 96.8451 99.8102 97.2182 99.8102 97.2182C98.5877 97.7572 99.3957 101.177 98.4426 102.11C96.93 103.623 95.1688 104.867 93.3454 105.966L78.2609 109.842Z" fill="#16142B"/>
<path d="M67.5282 102.381C68.8543 112.351 77.5569 120.207 85.3892 119.171C93.2215 118.134 97.2412 108.578 95.8944 98.5872C94.5683 88.6166 87.1297 81.3616 79.2974 82.4187C71.4651 83.4552 66.2021 92.41 67.5282 102.381Z" fill="#F37A50"/>
<path d="M93.7128 103.165C94.4197 102.899 94.7772 102.11 94.5113 101.403C94.2454 100.696 93.4567 100.338 92.7498 100.604C92.0428 100.87 91.6853 101.659 91.9512 102.366C92.2172 103.074 93.0058 103.431 93.7128 103.165Z" fill="black"/>
<path d="M83.2673 103.806C84.0385 103.515 84.4285 102.655 84.1384 101.883C83.8483 101.112 82.9879 100.721 82.2167 101.012C81.4455 101.302 81.0555 102.163 81.3456 102.934C81.6357 103.706 82.4961 104.096 83.2673 103.806Z" fill="black"/>
<path d="M87.6264 102.773C89.0768 104.66 90.8795 106.94 90.8795 106.94C90.8795 106.94 90.3615 109.116 87.585 109.427C88.7039 108.826 89.802 107.914 89.1597 106.401C88.5381 104.867 87.6264 102.773 87.6264 102.773Z" fill="#DE623C"/>
<path d="M79.1932 100.888C79.1517 100.867 79.0896 100.846 79.0481 100.805C78.758 100.577 78.6959 100.141 78.9445 99.8304C79.5868 99.022 81.3066 97.7161 83.2129 98.5867C83.5652 98.7526 83.7102 99.1464 83.5444 99.4988C83.3787 99.8512 82.985 99.9963 82.6327 99.8304C81.2238 99.1879 80.0427 100.66 80.022 100.68C79.8148 100.95 79.4625 101.012 79.1932 100.888Z" fill="#16142B"/>
<path d="M91.7494 99.624C91.6458 99.6033 91.5629 99.5411 91.48 99.4789C91.2521 99.2509 91.2521 98.8985 91.48 98.6705C91.5215 98.629 92.3503 97.7999 93.4899 97.8828C94.2773 97.9242 94.9818 98.3803 95.6034 99.2094C95.7899 99.4582 95.7484 99.8106 95.4998 100.018C95.2512 100.204 94.8989 100.163 94.6917 99.9142C94.2773 99.3753 93.8422 99.085 93.407 99.0436C92.7854 99.0021 92.2881 99.4789 92.2881 99.4996C92.1431 99.6033 91.9359 99.6654 91.7494 99.624Z" fill="#16142B"/>
<path d="M97.3863 88.3667L79.4839 78.9766L63.3013 93.155L68.9787 105.986C67.8805 99.6639 72.1903 100.721 73.6822 98.3994C75.2155 96.0571 75.3398 92.9685 80.665 94.3366C80.665 94.3366 83.7937 90.7712 86.6739 93.9635C88.891 96.4302 90.7972 95.373 92.89 94.9999C95.335 94.5646 95.3557 97.052 96.8062 96.596L97.3863 88.3667Z" fill="#16142B"/>
<path d="M70.3579 106.857C71.6899 105.454 71.3774 102.994 69.66 101.362C67.9426 99.7298 65.4706 99.5439 64.1387 100.947C62.8068 102.349 63.1193 104.809 64.8367 106.441C66.5541 108.074 69.026 108.259 70.3579 106.857Z" fill="#F37A50"/>
<path d="M68.1077 106.193C68.1906 106.172 68.2528 106.131 68.2942 106.068C69.1023 105.198 69.2681 104.12 68.7501 103.229C68.2113 102.316 67.1132 101.798 66.1186 102.026C65.8492 102.088 65.6627 102.358 65.7249 102.648C65.7871 102.918 66.0564 103.104 66.3465 103.042C66.8852 102.918 67.5483 103.229 67.8591 103.747C68.1492 104.244 68.0249 104.825 67.5276 105.364C67.3411 105.571 67.3411 105.903 67.5483 106.089C67.7348 106.234 67.942 106.276 68.1077 106.193Z" fill="#DE623C"/>
<path d="M81.9485 111.396C81.7413 111.065 82.0314 110.671 82.4043 110.733C83.3575 110.92 84.9322 111.21 86.4448 111.334C87.9574 111.459 89.5529 111.417 90.5267 111.396C90.8997 111.376 91.1276 111.832 90.8583 112.122C90.0916 113.013 88.5376 114.319 86.2169 114.133C83.8962 113.925 82.5701 112.391 81.9485 111.396Z" fill="white"/>
<path d="M52.4639 192.363C52.4639 192.363 63.9844 193.773 75.8986 193.856C87.8129 193.773 98.5046 190.85 98.5046 190.85C98.5046 190.85 100.1 168.09 100.266 159.695C100.494 150.035 99.6442 137.246 99.6442 124.497C99.6442 124.497 91.1903 123.129 86.4246 122.549C85.6579 122.445 84.9742 122.383 84.4354 122.342C84.4354 122.342 81.7211 128.042 69.8897 122.342C69.2681 122.279 68.5015 122.279 67.6312 122.342C62.6583 122.632 54.6602 124.518 54.6602 124.518C54.6602 137.246 54.1422 149.704 54.3287 159.363C53.79 167.924 52.4639 192.363 52.4639 192.363Z" fill="#E62552"/>
<path d="M67.6519 122.301C68.4807 123.669 69.641 124.726 71.2779 125.535C73.8887 126.841 77.4112 127.4 79.5868 127.235C81.3066 127.09 83.2129 126.406 84.4354 125.431C85.7408 124.395 86.3002 123.089 86.4245 122.529C85.6579 122.426 84.8498 122.322 84.3318 122.26C84.3318 122.26 81.7417 128.002 69.9104 122.301C69.268 122.26 68.5014 122.26 67.6519 122.301Z" fill="#C4204A"/>
<path d="M122.748 141.391C122.748 141.391 132.632 129.804 150.948 122.176C152.71 124.912 155.942 129.762 155.942 129.762C155.942 129.762 137.853 151.548 127.949 156.337C127.161 156.71 119.992 151.383 122.748 141.391Z" fill="#C4204A"/>
<path d="M163.423 127.855C162.324 123.357 158.864 114.713 156.771 110.588C149.913 97.1147 134.601 81.5681 122.521 73.4217C113.486 67.3274 101.22 58.9945 101.22 58.9945C98.9407 54.2268 100.826 52.7344 100.826 52.7344C95.6254 55.284 97.7804 57.2532 100.37 59.6578L100.308 59.6992L104.742 63.2024C111.787 68.737 145.852 97.1354 151.633 112.558C153.249 116.89 157.082 125.368 158.201 129.845C163.278 150.16 154.326 201.629 154.388 203.557C154.492 207.081 156.44 210.315 159.548 208.843C159.548 208.843 157.559 208.325 156.108 203.246C156.108 203.246 160.646 178.807 162.159 170.66C165.888 150.491 165.95 138.261 163.423 127.855Z" fill="#494C7F"/>
<path d="M101.054 58.5586L100.35 59.6987L95.1694 142.717L155.01 206.085L157.869 204.987L156.108 203.266L154.223 203.992L96.1847 142.324L101.075 60.2791L102.049 59.5536L101.054 58.5586Z" fill="white"/>
<path d="M193.737 102.463L76.6461 151.673L76.2109 150.657L193.323 101.447L193.737 102.463Z" fill="#2C2858"/>
<path d="M76.2105 150.658L72.688 148.212L86.9436 142.283L92.2273 143.983L76.2105 150.658Z" fill="#191E29"/>
<path d="M76.6453 151.673L75.8994 155.902L90.155 149.974L92.6622 145.02L76.6453 151.673Z" fill="#191E29"/>
<path d="M196.14 100.867L186.339 102.38L188.66 103.375L189.074 104.412L188.805 106.651L196.14 100.867Z" fill="#494C7F"/>
<path d="M159.009 122.61C158.719 123.585 159.568 124.891 160.832 125.43C160.874 125.388 160.936 125.45 160.936 125.45C160.832 125.533 160.832 125.637 160.77 125.803C160.625 126.653 161.205 127.689 162.096 128.041C162.987 128.394 163.92 128.083 164.106 127.212C164.292 126.549 163.899 125.637 163.256 125.181C163.402 125.056 163.567 124.808 163.629 124.559C163.816 123.896 163.422 122.984 162.738 122.362C162.801 122.217 162.842 122.051 162.904 121.906C163.091 121.014 162.428 119.854 161.35 119.252C161.557 119.066 161.661 118.879 161.723 118.631C161.91 117.636 161.267 116.475 160.19 115.977C159.112 115.48 158.035 115.915 157.786 116.952C157.6 117.843 157.973 118.734 158.719 119.315C158.512 119.501 158.366 119.729 158.304 119.999C158.118 120.662 158.512 121.574 159.195 122.196C159.112 122.3 159.071 122.465 159.009 122.61Z" fill="#F37A50"/>
<path d="M155.134 121.057C155.487 118.487 154.098 117.098 156.15 115.999C158.222 114.921 156.626 113.532 154.223 114.382C152.026 115.149 152.192 117.782 152.296 120.02C151.488 120.787 151.322 122.715 151.322 122.715L155.487 129.037L157.807 128.105C157.807 128.125 156.295 122.84 155.134 121.057Z" fill="#DE623C"/>
<path d="M151.943 118.837L155.3 117.428L155.403 118.568L152.088 119.977L151.943 118.837Z" fill="#2C2858"/>
<path d="M89.5537 153.685C88.3934 151.011 87.3159 150.741 87.3159 146.906C87.3159 145.145 88.3727 143.403 89.3465 142.035C90.7348 140.087 93.8428 140.211 94.8789 140.833C96.2257 141.641 96.6608 142.284 95.5419 142.574C94.3816 142.864 92.5789 142.305 93.2212 143.175C93.4699 143.507 93.6564 144.15 95.9978 143.403C98.5878 142.305 99.4373 137.807 100.763 138.283C101.799 138.656 101.427 141.683 98.7121 144.543C99.4166 144.17 100.618 144.004 100.805 145.207C100.888 145.766 100.37 146.326 99.2923 146.865C100.701 146.658 101.095 146.492 101.427 147.383C101.675 148.44 101.344 148.772 100.66 149.042C101.447 148.876 101.779 148.606 101.965 149.415C102.255 150.7 100.287 151.84 96.4329 153.021C95.3347 153.374 89.5537 153.685 89.5537 153.685Z" fill="#F37A50"/>
<path d="M85.9488 156.732L90.673 152.835L87.8551 146.223L82.4678 150.472L85.9488 156.732Z" fill="#F37A50"/>
<path d="M50.6615 157.996C61.5397 154.638 83.8348 148.668 83.8348 148.668C86.6114 152.606 87.8132 155.923 87.8132 155.923C77.1214 167.987 47.0976 178.206 37.0275 173.667C28.4078 169.77 35.95 131.256 54.6605 124.498L55.22 124.54C60.6487 133.722 50.6615 157.996 50.6615 157.996Z" fill="#C4204A"/>
<path d="M272.597 126.985L308.443 109.221V123.876L279.953 144.708L272.597 126.985Z" fill="#0E6A41"/>
<path d="M246.863 294.785C252.561 302.641 266.547 297.832 266.071 308.445C244.811 308.3 235.964 308.445 235.964 308.445C235.985 305.999 236.42 300.216 236.896 297.936L246.863 294.785Z" fill="#3C3F73"/>
<path d="M311.572 295.324C317.27 303.18 331.257 298.371 330.78 308.984C309.521 308.839 300.673 308.984 300.673 308.984C300.694 306.538 301.129 300.755 301.606 298.475L311.572 295.324Z" fill="#3C3F73"/>
<path d="M284.015 177.668L260.228 188.012C260.228 188.012 277.592 231.729 287.268 244.415C288.947 246.633 302 242.86 301.669 240.145C300.073 226.692 284.015 177.668 284.015 177.668Z" fill="#4364CC"/>
<path d="M313.438 297.274L301.627 298.497C298.063 287.075 277.84 252.686 289.071 238.943C291.826 236.062 297.462 235.813 300.177 238.093C301.731 239.192 301.938 241.099 302.456 242.902C307.305 260.314 309.667 277.188 313.438 297.274Z" fill="#4364CC"/>
<path d="M278.192 180.239C278.192 180.239 265.614 160.692 255.192 174.041C244.77 187.391 244.894 227.501 246.262 245.079C246.51 248.147 257.368 251.505 259.191 249.888C265.884 244.022 278.192 180.239 278.192 180.239Z" fill="#768FDB"/>
<path d="M251.048 297.274L236.938 297.937C238.201 287.718 238.264 256.148 248.562 241.182C249.411 239.959 249.826 238.591 250.489 237.492C251.939 235.191 264.206 239.337 263.315 241.845C260.414 251.256 259.274 271.218 251.048 297.274Z" fill="#768FDB"/>
<path d="M255.752 86.0678C249.163 79.1443 232.296 85.6739 233.498 95.7688C234.721 105.864 237.352 111.999 225.023 114.3C215.223 116.124 208.219 127.691 212.467 140.999C217.896 158.017 227.572 147.632 227.51 156.919C227.448 166.205 228.401 175.284 240.667 171.698C252.934 168.092 260.808 154.431 254.985 141.04C249.163 127.65 260.497 126.199 260.89 118.55C261.471 107.626 255.752 86.0678 255.752 86.0678Z" fill="#16142B"/>
<path d="M266.858 129.639C266.858 129.639 267.686 135.029 264.578 135.795C261.47 136.562 254.487 131.38 254.487 131.38C254.653 129.846 254.384 127.898 253.887 125.825C253.742 125.245 253.597 124.664 253.431 124.084C251.773 118.3 248.852 112.289 248.852 112.289L261.988 115.274C261.988 115.274 263.563 120.083 264.972 124.27C265.138 124.789 265.324 125.286 265.49 125.783C266.049 127.421 266.547 128.851 266.858 129.639Z" fill="#DE623C"/>
<path d="M283.849 165.624C282.668 158.991 287.31 147.404 283.373 141.206C280.41 136.19 275.768 127.608 271.334 127.546C269.531 127.525 268.268 126.571 265.926 127.09C265.926 127.09 267.874 132.666 265.097 133.412C259.731 134.821 254.406 128.582 254.406 128.582C251.422 128.831 242.284 133.681 242.284 136.293C243.859 144.958 249.433 154.825 253.411 163.8C254.696 168.506 254.281 172.569 254.281 175.346C253.908 178.31 252.396 184.405 252.499 185.006C252.499 185.006 275.333 188.861 286.937 179.471C286.937 179.492 284.657 170.102 283.849 165.624Z" fill="#80BC48"/>
<path d="M265.946 127.111C265.946 127.111 276.659 134.158 279.974 144.709C283.289 155.26 284.719 181.068 284.719 181.068L288.304 178.539C288.304 178.539 287.226 152.503 284.367 140.895C275.726 127.691 272.618 126.986 272.618 126.986L265.946 127.111Z" fill="#3F964F"/>
<path d="M265.096 123.062C272.706 121.547 277.312 112.464 275.384 102.774C273.457 93.0835 265.725 86.4564 258.115 87.9715C250.505 89.4866 245.899 98.5702 247.827 108.26C249.755 117.95 257.486 124.578 265.096 123.062Z" fill="#F37A50"/>
<path d="M273.289 107.577C273.967 107.271 274.269 106.473 273.963 105.795C273.657 105.116 272.86 104.814 272.182 105.12C271.504 105.426 271.202 106.224 271.508 106.902C271.813 107.58 272.611 107.882 273.289 107.577Z" fill="black"/>
<path d="M263.296 107.793C264.026 107.464 264.351 106.605 264.022 105.874C263.693 105.144 262.834 104.818 262.103 105.148C261.373 105.477 261.048 106.336 261.377 107.067C261.707 107.797 262.565 108.123 263.296 107.793Z" fill="black"/>
<path d="M269.303 108.101C270.007 108.889 270.629 109.697 271.313 110.174C271.541 110.34 271.603 110.651 271.458 110.9C270.857 111.895 269.158 112.662 268.122 113.055C267.977 113.118 267.852 112.91 267.977 112.807C269.034 111.936 269.51 111.293 269.717 110.941C269.821 110.754 269.821 110.547 269.738 110.361C269.552 109.925 269.158 109.075 268.888 108.35C268.806 108.101 269.116 107.915 269.303 108.101Z" fill="#DE623C"/>
<path d="M260.103 104.702C259.854 104.764 259.564 104.681 259.377 104.474C259.108 104.163 259.149 103.707 259.46 103.438C261.387 101.779 263.418 102.152 263.501 102.173C263.894 102.256 264.143 102.629 264.081 103.023C263.998 103.417 263.625 103.666 263.231 103.603C263.169 103.583 261.781 103.355 260.434 104.536C260.31 104.619 260.206 104.681 260.103 104.702Z" fill="#201D40"/>
<path d="M274.835 105.28C274.524 105.363 274.193 105.218 274.027 104.949C273.509 104.037 272.576 103.995 272.535 103.995C272.141 103.995 271.81 103.664 271.831 103.249C271.831 102.855 272.183 102.523 272.576 102.523C272.639 102.523 274.338 102.565 275.291 104.202C275.498 104.555 275.374 104.99 275.021 105.197C274.959 105.239 274.897 105.26 274.835 105.28Z" fill="#201D40"/>
<path d="M262.652 116.06C262.465 115.77 262.714 115.418 263.046 115.48C263.874 115.625 265.263 115.853 266.589 115.936C267.915 116.019 269.324 115.957 270.173 115.915C270.505 115.894 270.691 116.288 270.484 116.537C269.821 117.325 268.495 118.506 266.444 118.382C264.413 118.258 263.211 116.931 262.652 116.06Z" fill="white"/>
<path d="M247.982 111.066C253.721 110.527 258.383 102.816 261.698 99.2295C265.967 97.8614 269.966 92.5963 270.401 90.8758C268.888 85.1547 263.833 82.6051 252.126 85.5693C244.894 87.3934 235.446 100.826 247.982 111.066Z" fill="#201D40"/>
<path d="M257.513 99.3321C257.513 99.3321 269.365 98.959 275.374 102.752C279.974 97.0105 274.835 92.4501 269.324 90.4395C265.283 91.7661 257.513 99.3321 257.513 99.3321Z" fill="#201D40"/>
<path d="M252.445 113.801C253.668 112.347 253.219 109.956 251.442 108.459C249.665 106.962 247.232 106.928 246.009 108.381C244.786 109.835 245.235 112.227 247.012 113.724C248.789 115.22 251.221 115.255 252.445 113.801Z" fill="#F37A50"/>
<path d="M250.219 113.264C250.281 113.222 250.344 113.181 250.406 113.118C251.152 112.206 251.255 111.17 250.696 110.32C250.116 109.449 249.017 109.014 248.044 109.304C247.774 109.387 247.608 109.657 247.691 109.926C247.774 110.196 248.044 110.362 248.313 110.279C248.831 110.134 249.494 110.403 249.826 110.88C250.136 111.357 250.053 111.916 249.598 112.476C249.411 112.683 249.453 113.015 249.681 113.181C249.846 113.326 250.053 113.346 250.219 113.264Z" fill="#DE623C"/>
<path d="M244.998 132.874C244.998 132.874 251.525 128.521 254.343 128.086C258.446 133.724 262.237 137.331 265.263 147.053C268.288 156.775 269.303 171.388 274.98 185.38C269.469 188.054 255.462 190.48 248.438 187.453C249.929 180.799 250.924 169.689 248.541 160.423C246.158 151.157 244.998 132.874 244.998 132.874Z" fill="#3F964F"/>
<path d="M253.928 125.949L250.344 129.535L256.477 136.811L261.989 139.071C261.989 139.05 257.907 131.65 253.928 125.949Z" fill="#0E6A41"/>
<path d="M265.304 125.266L270.152 126.696L274.586 131.381L274.98 135.609L265.946 127.11L265.304 125.266Z" fill="#0E6A41"/>
<path d="M457.506 294.639C451.705 302.661 437.449 297.727 437.905 308.568C459.578 308.423 468.592 308.568 468.592 308.568C468.571 306.081 468.136 300.173 467.638 297.852L457.506 294.639Z" fill="#070635"/>
<path d="M406.513 294.639C400.711 302.661 386.455 297.727 386.911 308.568C408.585 308.423 417.598 308.568 417.598 308.568C417.577 306.081 417.142 300.173 416.645 297.852L406.513 294.639Z" fill="#070635"/>
<path d="M382.602 175.075L385.461 174.121L384.011 167.695L379.39 169.312L382.602 175.075Z" fill="#F37A50"/>
<path d="M421.515 127.336C421.515 127.336 429.16 146.987 419.152 144.727C412.791 143.297 386.767 129.865 383.348 125.18C381.379 122.486 392.485 113.987 393.273 111.479C407.922 118.651 417.163 123.211 421.515 127.336Z" fill="#30357F"/>
<path d="M425.203 184.568L451.331 198.312C451.331 198.312 430.01 238.546 417.764 251.004C415.63 253.181 403.405 249.802 402.535 247.211C399.323 237.717 425.203 184.568 425.203 184.568Z" fill="#3C3F73"/>
<path d="M404.628 297.376L417.599 300.009C418.759 288.235 422.862 260.686 420.272 248.208C420.106 247.399 419.92 246.611 419.712 245.865C418.718 243.129 417.247 241.077 415.568 239.688C411.155 235.998 405.27 236.807 402.597 241.699C402.576 241.74 402.556 241.782 402.514 241.844C402.473 242.155 402.452 242.486 402.411 242.797V242.818C402.349 243.647 402.286 244.476 402.245 245.347C401.789 255.318 404.255 273.517 404.628 297.376Z" fill="#3C3F73"/>
<path d="M430.963 190.767L462.251 183.201C462.251 183.201 463.577 234.049 459.764 251.088C459.101 254.052 448.099 257.41 445.964 255.669C438.236 249.326 430.963 190.767 430.963 190.767Z" fill="#494C7F"/>
<path d="M442.152 248.663C442.152 248.684 442.152 248.704 442.152 248.725C444.597 257.929 447.477 272.522 455.103 296.982L468.571 298.515C467.846 287.322 465.815 260.001 460.303 247.958C459.702 246.652 459.06 245.45 458.376 244.372C452.658 235.459 441.075 239.335 442.152 248.663Z" fill="#494C7F"/>
<path d="M451.705 122.985L427.586 122.84L418.428 125.037C415.858 138.635 419.92 190.416 419.92 190.416C419.92 190.416 426.923 200.469 442.443 198.5C455.186 193.898 464.075 197.132 464.075 197.132C467.411 181.482 465.712 162.577 463.826 143.278C462.604 131.007 457.672 126.447 451.705 122.985Z" fill="#2C2858"/>
<path d="M437.967 111.251L432.186 110.857L429.906 124.393C429.906 124.393 429.492 127.627 435.273 128.974C440.225 130.135 443.831 125.43 443.831 125.43L443.644 111.687L437.967 111.251Z" fill="#DE623C"/>
<path d="M446.338 101.819C445.426 111.769 439.48 119.335 431.668 118.61C423.856 117.905 418.262 109.261 419.174 99.3112C420.085 89.3614 427.151 81.8783 434.962 82.5831C442.774 83.2879 447.25 91.8696 446.338 101.819Z" fill="#F37A50"/>
<path d="M428.497 102.4C427.15 104.328 425.431 106.671 425.431 106.671C425.431 106.671 426.052 108.806 428.808 108.992C427.668 108.453 426.55 107.583 427.109 106.049C427.689 104.494 428.497 102.4 428.497 102.4Z" fill="#DE623C"/>
<path d="M450.337 93.7973C450.792 84.345 442.007 81.588 442.007 81.588C442.007 81.588 443.913 80.8211 443.333 78.002C442.007 78.8933 440.349 79.3493 438.733 79.2664C427.917 78.6446 421.204 80.6967 422.447 84.8632C422.882 86.3557 415.941 87.4128 419.463 97.259C420.085 96.0567 420.499 91.6 422.551 90.5429C424.623 89.4857 423.504 92.9889 428.249 92.2426C433.035 91.4964 436.081 89.3821 439.645 91.144C442.504 92.7401 446.483 104.079 446.358 104.866C446.648 103.063 450.15 97.9638 450.337 93.7973Z" fill="#181B47"/>
<path d="M419.339 104.7C419.339 104.7 420.478 110.048 421.701 111.437C421.867 109.116 427.005 110.359 429.202 110.463C433.201 110.65 437.117 106.939 438.671 112.121C445.405 112.536 445.156 100.928 445.156 100.928C446.545 109.758 444.017 121.574 430.859 122.05C422.405 122.341 418.199 112.93 419.339 104.7Z" fill="#181B47"/>
<path d="M420.313 99.8289C420.541 99.8289 420.769 99.7253 420.914 99.518C421.287 98.9376 421.722 98.5852 422.198 98.5023C423.048 98.3365 423.856 98.9169 423.877 98.9376C424.187 99.1656 424.602 99.0827 424.83 98.7925C425.058 98.4816 424.996 98.067 424.685 97.839C424.623 97.7975 423.4 96.9062 421.95 97.1757C421.059 97.3415 420.333 97.9012 419.753 98.8132C419.546 99.1242 419.65 99.5595 419.961 99.746C420.064 99.7875 420.188 99.8082 420.313 99.8289Z" fill="#181B47"/>
<path d="M436.537 99.373C436.682 99.373 436.827 99.3108 436.951 99.2072C437.241 98.9584 437.262 98.5231 437.014 98.2537C436.081 97.1758 435.066 96.5953 434.009 96.5539C432.642 96.4917 431.73 97.383 431.688 97.4245C431.419 97.694 431.419 98.1293 431.688 98.3988C431.958 98.6682 432.372 98.6682 432.642 98.4195C432.662 98.3988 433.201 97.9013 433.968 97.9427C434.631 97.9842 435.314 98.378 435.978 99.1657C436.123 99.3108 436.33 99.3937 436.537 99.373Z" fill="#181B47"/>
<path d="M450.308 105.838C451.94 104.152 452.144 101.701 450.763 100.363C449.382 99.0249 446.939 99.3068 445.307 100.993C443.675 102.678 443.472 105.13 444.852 106.468C446.233 107.806 448.676 107.524 450.308 105.838Z" fill="#F37A50"/>
<path d="M447.043 105.696C446.96 105.675 446.898 105.634 446.836 105.572C446.007 104.742 445.779 103.685 446.256 102.773C446.753 101.84 447.81 101.301 448.804 101.467C449.074 101.509 449.26 101.778 449.219 102.068C449.177 102.338 448.908 102.524 448.618 102.483C448.079 102.379 447.437 102.711 447.147 103.25C446.877 103.747 447.022 104.328 447.54 104.846C447.748 105.053 447.748 105.364 447.54 105.572C447.416 105.717 447.23 105.758 447.043 105.696Z" fill="#DE623C"/>
<path d="M434.128 102.788C434.808 102.322 434.981 101.393 434.516 100.713C434.05 100.033 433.122 99.859 432.442 100.325C431.762 100.79 431.588 101.719 432.054 102.399C432.519 103.08 433.448 103.253 434.128 102.788Z" fill="black"/>
<path d="M423.529 102.653C424.152 102.226 424.312 101.374 423.885 100.751C423.458 100.127 422.607 99.9681 421.984 100.395C421.361 100.822 421.201 101.673 421.628 102.297C422.055 102.92 422.906 103.08 423.529 102.653Z" fill="black"/>
<path d="M425.784 112.991C425.576 112.722 425.784 112.349 426.115 112.369C426.965 112.432 428.353 112.514 429.679 112.452C431.005 112.39 432.393 112.204 433.243 112.079C433.575 112.017 433.802 112.39 433.616 112.66C433.036 113.509 431.834 114.815 429.783 114.898C427.731 114.981 426.426 113.779 425.784 112.991Z" fill="white"/>
<path d="M352.69 197.228C385.156 197.228 411.475 170.898 411.475 138.418C411.475 105.939 385.156 79.6094 352.69 79.6094C320.224 79.6094 293.905 105.939 293.905 138.418C293.905 170.898 320.224 197.228 352.69 197.228Z" fill="#E62552"/>
<path d="M352.691 183.961C377.833 183.961 398.215 163.571 398.215 138.418C398.215 113.265 377.833 92.875 352.691 92.875C327.548 92.875 307.166 113.265 307.166 138.418C307.166 163.571 327.548 183.961 352.691 183.961Z" fill="white"/>
<path d="M352.69 172.519C371.515 172.519 386.776 157.253 386.776 138.42C386.776 119.587 371.515 104.32 352.69 104.32C333.865 104.32 318.604 119.587 318.604 138.42C318.604 157.253 333.865 172.519 352.69 172.519Z" fill="#E62552"/>
<path d="M352.714 159.668C364.444 159.668 373.954 150.154 373.954 138.419C373.954 126.683 364.444 117.17 352.714 117.17C340.983 117.17 331.474 126.683 331.474 138.419C331.474 150.154 340.983 159.668 352.714 159.668Z" fill="white"/>
<path d="M352.713 147.416C357.68 147.416 361.707 143.387 361.707 138.418C361.707 133.448 357.68 129.42 352.713 129.42C347.746 129.42 343.719 133.448 343.719 138.418C343.719 143.387 347.746 147.416 352.713 147.416Z" fill="#E62552"/>
<path d="M240.73 139.838C240.232 149.933 255.503 172.009 265.76 176.693C271.499 173.543 272.515 163.323 272.515 163.323C272.515 163.323 258.673 147.86 256.394 141.869C255.483 139.464 251.877 132.292 248.127 132.168C242.408 131.961 240.854 137.329 240.73 139.838Z" fill="#0E6A41"/>
<path d="M305.999 165.521C305.999 165.521 283.082 164.651 278.586 164.153C273.882 163.656 271.479 170.973 271.748 175.512C285.175 176.321 297.586 174.414 308.444 170.703C307.864 168.174 305.999 165.521 305.999 165.521Z" fill="#F37A50"/>
<path d="M307.408 171.035C306.372 169.75 305.232 167.2 304.838 165.998C304.611 165.272 305.854 163.552 306.662 162.702C306.33 160.525 305.875 159.53 307.035 158.535C307.035 158.535 308.796 161.002 309.563 161.583C310.205 161.541 310.889 161.272 311.966 160.629C314.308 159.199 316.193 156.483 317.354 157.437C318.12 158.059 314.453 161.002 312.982 162.184C315.137 161.23 317.292 158.266 318.328 158.929C319.592 159.758 315.903 162.888 314.37 163.738C316.96 163.282 318.265 160.152 319.073 160.691C319.944 161.334 318.473 164.257 315.696 165.251C318.328 164.795 319.26 162.412 319.902 163.075C320.565 163.78 318.928 166.371 315.365 168.34C312.961 169.667 307.408 171.035 307.408 171.035Z" fill="#F37A50"/>
<path d="M270.961 161.376C271.23 160.588 272.121 162.267 273.074 162.371C274.028 162.474 274.815 161.852 274.877 162.93C274.918 164.008 276.493 173.232 271.541 178.104C270.153 178.29 265.304 178.124 263.211 175.409C266.195 173.398 270.961 161.376 270.961 161.376Z" fill="#47A859"/>
<path d="M465.608 128.249C468.095 138.8 452.326 167.717 442.443 174.64C435.792 172.443 433.782 162.721 433.782 162.721C433.782 162.721 441.883 141.039 443.106 134.302C443.603 131.586 446.048 122.611 449.985 121.74C455.953 120.414 464.987 125.617 465.608 128.249Z" fill="#30357F"/>
<path d="M405.062 164.11C405.663 162.245 408.025 158.41 407.134 157.208C406.637 156.544 404.772 155.964 403.799 155.176C403.156 153.829 403.363 153.062 402.949 151.424C402.576 149.911 402.286 149.538 401.706 149.683L400.255 153.394C399.82 154.326 399.862 154.865 395.78 153.705C392.651 152.834 389.916 151.051 389.046 152.585C388.465 153.601 393.024 155.321 395.137 156.026C392.34 155.86 389.439 153.477 388.569 154.658C387.512 156.088 392.237 157.664 394.309 157.954C391.242 158.514 389.17 155.964 388.486 156.897C387.782 157.995 390.289 160.317 393.811 160.255C390.703 160.835 389.025 158.866 388.59 159.903C388.155 160.96 392.9 162.887 397.707 163.136C401.499 163.302 405.062 164.11 405.062 164.11Z" fill="#F37A50"/>
<path d="M405.56 156.025C405.56 156.025 430.963 161.498 436.039 162.099C441.364 162.721 443.851 169.727 442.421 174.64C426.197 177.189 414.656 170.909 403.612 164.13C404.876 161.456 405.56 156.025 405.56 156.025Z" fill="#30357F"/>
<path d="M332.147 85.818C333.142 86.0045 334.343 85.0095 334.737 83.6829C334.696 83.6414 334.737 83.5792 334.737 83.5792C334.841 83.6622 334.944 83.6622 335.11 83.7036C335.96 83.7451 336.933 83.061 337.161 82.1282C337.41 81.1954 336.996 80.3248 336.105 80.2212C335.421 80.1175 334.571 80.5943 334.198 81.2991C334.053 81.1747 333.805 81.0296 333.535 81.0089C332.851 80.9052 332.002 81.382 331.463 82.149C331.297 82.1075 331.152 82.066 330.987 82.0246C330.096 81.9417 328.997 82.7294 328.542 83.8487C328.334 83.6622 328.148 83.5792 327.879 83.5585C326.863 83.4756 325.786 84.2633 325.434 85.3827C325.061 86.502 325.62 87.5177 326.677 87.6628C327.568 87.7457 328.417 87.269 328.915 86.4605C329.122 86.6471 329.37 86.7715 329.64 86.7922C330.324 86.8959 331.173 86.4191 331.712 85.6521C331.836 85.7558 331.981 85.7765 332.147 85.818Z" fill="#F3906D"/>
<path d="M370.088 79.4735C371.062 79.204 372.346 80.0746 372.864 81.3598C372.823 81.4013 372.885 81.4635 372.885 81.4635C372.968 81.3598 373.092 81.3598 373.237 81.3184C374.087 81.194 375.102 81.7951 375.434 82.6865C375.765 83.5778 375.434 84.5106 374.543 84.6764C373.88 84.8422 372.989 84.4277 372.553 83.7851C372.408 83.9302 372.181 84.0753 371.911 84.1375C371.248 84.3033 370.357 83.8887 369.736 83.1839C369.59 83.2461 369.425 83.2876 369.28 83.3498C368.389 83.5156 367.249 82.8316 366.669 81.7537C366.482 81.9402 366.296 82.0439 366.027 82.106C365.032 82.2719 363.892 81.5878 363.416 80.5099C362.96 79.432 363.416 78.3541 364.452 78.1469C365.343 77.981 366.213 78.3749 366.793 79.1418C366.98 78.9553 367.208 78.7895 367.477 78.748C368.14 78.5822 369.031 78.9967 369.653 79.7015C369.798 79.5771 369.943 79.515 370.088 79.4735Z" fill="#F3906D"/>
<path d="M353.404 138.187L269.342 59.3293L270.08 58.5449L354.142 137.426L353.404 138.187Z" fill="#2C2858"/>
<path d="M270.08 58.5457L270.841 54.5312L281.542 64.6596L282.095 69.9199L270.08 58.5457Z" fill="#3F964F"/>
<path d="M269.343 59.3301L265.376 60.3221L276.077 70.4274L281.358 70.6812L269.343 59.3301Z" fill="#3F964F"/>
<path d="M355.733 139.664L351.789 130.205L350.636 134.127L349.921 134.889L346.093 136.065L355.733 139.664Z" fill="#494C7F"/>
<path d="M221.459 232.244C225.361 232.244 228.525 229.08 228.525 225.176C228.525 221.272 225.361 218.107 221.459 218.107C217.557 218.107 214.394 221.272 214.394 225.176C214.394 229.08 217.557 232.244 221.459 232.244Z" fill="#F0F4FF"/>
<path d="M154.594 266.967C156.974 266.967 158.904 265.037 158.904 262.655C158.904 260.274 156.974 258.344 154.594 258.344C152.214 258.344 150.284 260.274 150.284 262.655C150.284 265.037 152.214 266.967 154.594 266.967Z" fill="#F0F4FF"/>
<path d="M339.918 209.256C342.298 209.256 344.228 207.326 344.228 204.944C344.228 202.563 342.298 200.633 339.918 200.633C337.538 200.633 335.608 202.563 335.608 204.944C335.608 207.326 337.538 209.256 339.918 209.256Z" fill="#F0F4FF"/>
<path d="M142.39 59.8439C144.771 59.8439 146.7 57.9135 146.7 55.5323C146.7 53.1511 144.771 51.2207 142.39 51.2207C140.01 51.2207 138.081 53.1511 138.081 55.5323C138.081 57.9135 140.01 59.8439 142.39 59.8439Z" fill="#F0F4FF"/>
<path d="M552.095 198.168C554.475 198.168 556.404 196.238 556.404 193.856C556.404 191.475 554.475 189.545 552.095 189.545C549.714 189.545 547.785 191.475 547.785 193.856C547.785 196.238 549.714 198.168 552.095 198.168Z" fill="#F0F4FF"/>
<path d="M146.099 240.123C142.203 240.123 139.033 243.295 139.033 247.192C139.033 251.089 142.203 254.26 146.099 254.26C149.994 254.26 153.144 251.089 153.144 247.192C153.144 243.295 149.994 240.123 146.099 240.123ZM146.099 251.047C143.965 251.047 142.245 249.327 142.245 247.192C142.245 245.056 143.985 243.336 146.099 243.336C148.233 243.336 149.953 245.056 149.953 247.192C149.953 249.327 148.212 251.047 146.099 251.047Z" fill="#F0F4FF"/>
<path d="M210.664 0.808594C206.769 0.808594 203.599 3.9801 203.599 7.87711C203.599 11.7741 206.769 14.9456 210.664 14.9456C214.56 14.9456 217.709 11.7741 217.709 7.87711C217.709 3.9801 214.539 0.808594 210.664 0.808594ZM210.664 11.7119C208.53 11.7119 206.81 9.99144 206.81 7.85638C206.81 5.72131 208.53 4.00082 210.664 4.00082C212.798 4.00082 214.518 5.72131 214.518 7.85638C214.518 9.99144 212.778 11.7119 210.664 11.7119Z" fill="#F0F4FF"/>
<path d="M411.735 46.6621C407.84 46.6621 404.669 49.8336 404.669 53.7306C404.669 57.6276 407.84 60.7991 411.735 60.7991C415.631 60.7991 418.801 57.6276 418.801 53.7306C418.801 49.8336 415.631 46.6621 411.735 46.6621ZM411.735 57.5862C409.601 57.5862 407.881 55.845 407.881 53.7306C407.881 51.5956 409.601 49.8751 411.735 49.8751C413.869 49.8751 415.589 51.5956 415.589 53.7306C415.589 55.845 413.869 57.5862 411.735 57.5862Z" fill="#F0F4FF"/>
<path d="M384.012 249.098C380.117 249.098 376.946 252.269 376.946 256.166C376.946 260.063 380.117 263.235 384.012 263.235C387.907 263.235 391.057 260.063 391.057 256.166C391.078 252.269 387.907 249.098 384.012 249.098ZM384.012 260.001C381.878 260.001 380.158 258.26 380.158 256.145C380.158 254.01 381.899 252.29 384.012 252.29C386.146 252.29 387.866 254.01 387.866 256.145C387.866 258.281 386.146 260.001 384.012 260.001Z" fill="#F0F4FF"/>
</svg>
