<svg width="266" height="268" viewBox="0 0 266 268" fill="none" xmlns="http://www.w3.org/2000/svg">
<path d="M113.226 76.2735C111.262 74.9668 109.25 73.7288 107.313 72.3846C106.96 72.1385 106.645 71.5066 106.681 71.0831C106.917 68.361 107.308 65.6506 107.525 62.9272C107.589 62.1347 107.765 61.719 108.524 61.4159C111.194 60.3514 113.836 59.2144 116.487 58.102C116.917 57.922 117.34 57.7265 118.081 57.3988C116.785 53.3274 115.501 49.3012 114.187 45.174C110.769 45.8759 107.652 46.4639 104.564 47.18C103.475 47.4325 102.88 47.3095 102.171 46.3033C100.723 44.2468 98.9875 42.3937 97.4296 40.411C97.1913 40.1067 97.0851 39.4903 97.2198 39.1329C98.2519 36.4056 99.2828 33.6706 100.478 31.0132C101.052 29.7376 100.756 29.0552 99.613 28.4711C99.174 28.2471 98.8153 27.8638 98.419 27.553C96.4454 26.5092 94.4718 25.4641 92.4982 24.4204C92.2509 24.3725 91.988 24.3634 91.7588 24.2714C89.3527 23.3067 89.815 23.3235 88.4656 25.3346C86.8223 27.7861 85.2191 30.2647 83.8127 32.4066C80.1349 32.0881 76.698 31.7902 73.1484 31.482C71.7834 28.2316 70.3576 24.8348 68.9228 21.416C64.5975 22.0272 60.6283 23.4167 56.7368 25.2945C57.4335 28.655 58.1056 31.934 58.801 35.2064C58.9254 35.7944 58.893 36.1505 58.318 36.5856C56.0725 38.2885 53.8671 40.0523 51.7446 41.9055C51.1321 42.439 50.7371 42.4442 50.074 42.1709C47.3364 41.0417 44.5742 39.9759 41.8314 38.857C41.1502 38.5786 40.7112 38.6032 40.2126 39.2701C37.9762 42.2655 36.4597 45.6092 35.2217 49.1044C34.9769 49.7959 35.311 50.0924 35.8342 50.4279C38.2559 51.9793 40.6413 53.589 43.0733 55.1235C43.7739 55.5651 43.9901 55.9484 43.8567 56.8511C43.3957 59.9707 43.116 63.1163 42.7405 66.504C39.7853 67.7446 36.4325 69.1523 33.0811 70.5586C33.6858 74.9668 34.8966 79.0422 36.8767 82.9207C40.5403 82.1424 44.1041 81.3848 47.3312 80.6985C49.3631 83.0088 51.1955 85.2051 53.1626 87.2732C53.906 88.0541 54.0406 88.6472 53.6159 89.621C52.4827 92.2175 51.4519 94.8567 50.4056 97.4907C50.1984 98.0113 49.7891 98.6187 50.6024 99.0409C53.9098 100.758 57.2147 102.479 60.5221 104.196C61.2253 104.561 61.6656 104.322 62.0852 103.66C63.6456 101.194 65.3162 98.7961 66.8339 96.3045C67.4193 95.3436 68.0564 95.3022 69.051 95.4291C71.5063 95.7425 73.981 96.008 76.4506 96.0481C77.5151 96.065 77.9075 96.3395 78.2727 97.2848C79.4472 100.319 80.7422 103.308 81.9647 106.251C84.6039 106.233 91.7769 103.932 94.3566 102.306C93.656 99.0719 92.9826 95.7943 92.2172 92.5374C92.0256 91.7228 92.2651 91.3706 92.8867 90.8759C94.8901 89.2779 96.7795 87.5387 98.7673 85.9212C99.1014 85.6493 99.7826 85.4952 100.167 85.6428C102.611 86.5804 105.022 87.6034 107.432 88.6265C108.779 89.1989 109.322 89.4346 109.834 89.0849L115.393 78.5786C115.402 77.729 114.815 77.3315 113.226 76.2735ZM92.2833 72.7433C87.3157 82.1333 75.6749 85.7192 66.2849 80.7503C56.8948 75.7814 53.309 64.1419 58.2779 54.7519C63.2455 45.3618 74.8862 41.776 84.2763 46.7449C93.6663 51.7125 97.2522 63.3533 92.2833 72.7433Z" fill="#CAE1F9"/>
<path opacity="0.2" d="M192.031 62.8546C191.31 62.3755 190.572 61.9209 189.861 61.4275C189.731 61.3369 189.615 61.1051 189.629 60.9497C189.716 59.9499 189.859 58.9554 189.938 57.9556C189.962 57.6643 190.026 57.5115 190.305 57.4014C191.285 57.0103 192.255 56.5933 193.228 56.1854C193.386 56.1193 193.541 56.0468 193.813 55.9277C193.337 54.4333 192.866 52.9557 192.383 51.4405C191.129 51.6982 189.985 51.9145 188.851 52.1774C188.45 52.2693 188.233 52.2253 187.973 51.8562C187.44 51.1012 186.805 50.4213 186.232 49.6936C186.144 49.5822 186.105 49.3556 186.156 49.2248C186.535 48.2237 186.913 47.2201 187.352 46.2437C187.563 45.7749 187.455 45.5249 187.035 45.3113C186.873 45.2284 186.742 45.0885 186.597 44.9746C185.873 44.5913 185.148 44.2079 184.424 43.8246C184.334 43.8078 184.237 43.8039 184.152 43.7702C183.269 43.4154 183.439 43.4219 182.944 44.16C182.341 45.06 181.753 45.9704 181.236 46.7552C179.887 46.6386 178.624 46.5286 177.321 46.4159C176.82 45.2232 176.297 43.9761 175.77 42.7213C174.182 42.9453 172.725 43.4555 171.297 44.1458C171.553 45.3799 171.799 46.583 172.054 47.7847C172.1 48.001 172.088 48.1318 171.877 48.2911C171.052 48.9165 170.243 49.5641 169.463 50.2439C169.239 50.4395 169.093 50.4421 168.849 50.3411C167.844 49.9267 166.83 49.5356 165.824 49.125C165.574 49.0227 165.412 49.0318 165.23 49.2766C164.409 50.376 163.852 51.6037 163.397 52.887C163.308 53.1408 163.43 53.2496 163.623 53.3726C164.512 53.9424 165.387 54.533 166.28 55.0963C166.538 55.2582 166.617 55.3993 166.568 55.7308C166.398 56.8756 166.296 58.0308 166.157 59.274C165.072 59.7298 163.842 60.2465 162.611 60.7619C162.833 62.3794 163.278 63.8764 164.005 65.2996C165.349 65.0134 166.658 64.7363 167.842 64.4837C168.588 65.332 169.26 66.1375 169.982 66.8976C170.256 67.1851 170.305 67.4014 170.148 67.7601C169.733 68.7132 169.354 69.6819 168.97 70.6492C168.893 70.8409 168.743 71.0636 169.042 71.2177C170.257 71.8484 171.469 72.4804 172.684 73.1097C172.942 73.2431 173.103 73.1564 173.258 72.9129C173.83 72.0077 174.444 71.1271 175.001 70.2128C175.216 69.8606 175.45 69.845 175.814 69.8917C176.715 70.0069 177.623 70.104 178.531 70.1183C178.922 70.1248 179.066 70.2258 179.2 70.5715C179.632 71.6852 180.107 72.7821 180.556 73.8634C181.525 73.857 184.158 73.0126 185.104 72.4143C184.846 71.2268 184.599 70.0238 184.318 68.8285C184.248 68.5293 184.336 68.3998 184.564 68.2185C185.3 67.6319 185.994 66.9935 186.723 66.3991C186.846 66.2993 187.096 66.2424 187.237 66.2967C188.134 66.6412 189.019 67.0168 189.903 67.3923C190.398 67.6021 190.598 67.6889 190.785 67.5607L192.826 63.7042C192.83 63.3882 192.615 63.2418 192.031 62.8546ZM184.344 61.5583C182.521 65.0056 178.247 66.3214 174.8 64.498C171.353 62.6746 170.037 58.4011 171.86 54.9538C173.684 51.5066 177.957 50.1908 181.404 52.0142C184.852 53.8388 186.167 58.1111 184.344 61.5583Z" fill="#9BC1F9"/>
<path d="M67.1416 196.496C67.1416 196.496 30.2419 178.303 23.8964 168.813C17.5509 159.323 26.8787 158.786 26.8787 158.786C26.8787 158.786 10.4115 142.772 12.7283 136.029C15.045 129.287 23.5752 135.471 23.5752 135.471C23.5752 135.471 12.9873 111.902 17.9795 109.532C27.2789 105.119 40.3234 130.479 40.3234 130.479C40.3234 130.479 37.5198 119.462 43.9235 119.821C53.5803 120.361 53.1815 145.28 53.1815 145.28C53.1815 145.28 54.2719 135.726 60.0929 138.829C70.5345 144.397 67.1416 196.496 67.1416 196.496Z" fill="#B4C6E2"/>
<path d="M62.1934 134.973C57.6479 132.452 53.1219 139.823 53.1219 139.823C53.1219 139.823 53.5803 120.359 43.9235 119.819C37.5197 119.462 40.3234 130.477 40.3234 130.477C40.3234 130.477 27.2776 105.118 17.9795 109.532L67.1843 196.092C67.5314 190.047 71.1962 139.969 62.1934 134.973Z" fill="#0D47A1"/>
<path d="M66.1865 196.722C66.1865 196.722 36.0078 200.469 28.1938 197.129C20.3798 193.79 25.9794 189.664 25.9794 189.664C25.9794 189.664 9.20133 186.365 7.90633 181.219C6.61133 176.073 14.3515 176.483 14.3515 176.483C14.3515 176.483 -1.73624 166.065 0.414755 162.558C4.42148 156.027 22.8623 166.544 22.8623 166.544C22.8623 166.544 16.6372 160.812 20.7773 158.434C27.0205 154.846 36.8975 170.552 36.8975 170.552C36.8975 170.552 36.2837 166.681 41.1749 166.251C49.9524 165.481 66.1865 196.722 66.1865 196.722Z" fill="#B4C6E2"/>
<path d="M41.3733 163.439C36.4821 163.867 36.8978 170.552 36.8978 170.552C36.8978 170.552 26.8421 151.935 20.5989 155.522C16.4601 157.901 21.3565 165.713 21.3565 165.713C21.3565 165.713 4.42177 156.027 0.415039 162.558L66.2787 196.554C64.0397 192.644 49.5719 162.719 41.3733 163.439Z" fill="#0D47A1"/>
<path d="M239.721 152.647L241.343 148.73C242.6 145.849 245.818 144.473 248.531 145.657C255.366 148.641 258.338 156.946 255.168 164.207L252.851 169.515C251.836 171.841 252.19 174.398 253.559 176.202C254.802 177.84 255.005 180.118 254.143 182.093L252.921 184.892C251.599 187.922 249.026 190.165 245.974 191.091C244.189 191.632 242.612 192.971 241.779 194.881L240.049 198.844C238.136 203.225 233.244 205.316 229.119 203.516L226.766 202.489C222.642 200.689 220.849 195.679 222.762 191.298C225.855 186.06 225.609 182.15 224.512 179.499C222.901 175.6 222.919 171.114 224.662 167.122L224.907 166.562C226.747 162.348 230.299 159.201 234.53 157.853C236.397 157.258 238.344 155.805 239.721 152.647Z" fill="#0D47A1"/>
<path d="M132.941 230.031C128.56 224.352 104.54 193.926 88.8771 188.854C71.5888 183.257 87.8825 205.487 87.8825 205.487C87.8825 205.487 57.2131 171.951 45.9582 174.975C35.6409 177.746 45.9582 198.533 45.9582 198.533C45.9582 198.533 34.3382 187.022 20.2473 187.022C6.53323 187.022 29.829 227.847 31.0851 230.031H132.941Z" fill="#E7EDF6"/>
<path d="M262.329 108.221C262.329 108.221 257.908 113.93 255.304 116.17C252.701 118.41 250.218 120.553 246.9 127.68C243.581 134.806 243.677 135.622 242.795 137.457C241.913 139.292 237.282 146.479 236.933 147.914C236.582 149.348 229.022 156.218 226.682 159.712C224.341 163.206 220.502 168.08 219.998 170.9L220.681 170.886C220.681 170.886 222.718 164.512 228.716 158.988C234.716 153.463 234.363 152.074 240.227 149.883C246.091 147.691 251.538 139.137 251.538 139.137C251.538 139.137 259.058 130.219 260.041 124.902C261.022 119.585 263.497 115.16 262.329 108.221Z" fill="#256653"/>
<path d="M257.739 96.7928C257.739 96.7928 256.592 100.951 254.658 103.131C252.724 105.31 251.206 106.553 250.332 109.194C249.459 111.834 246.991 118.593 242.425 121.112C237.858 123.629 235.011 133.693 231.42 136.103C227.829 138.513 226.94 140.638 226.242 146.04C225.544 151.443 225.647 159.179 219.257 167.759L218.867 165.165C218.867 165.165 223.677 158.002 224.025 153.234C224.374 148.466 223.476 140.93 225.171 137.811C226.866 134.691 223.598 133.244 226.83 128.681C230.062 124.117 229.623 122.168 233.441 118.461C233.441 118.461 233.777 118.323 235.371 114.806C236.966 111.289 244.48 105.91 247.755 104.239C251.03 102.569 255.837 99.7882 257.739 96.7928Z" fill="#256653"/>
<path d="M241.752 114.985C241.752 114.985 237.167 119.836 236.28 123.44C235.393 127.043 235.102 130.073 232.292 134.635C229.482 139.198 232.047 143.092 230.463 145.604C228.878 148.115 228.053 151.333 227.512 153.792C226.971 156.251 221.297 163.49 219.765 167.466C218.233 171.443 218.966 171.627 218.966 171.627C218.966 171.627 220.856 166.346 222.144 164.754C223.433 163.163 227.52 157.592 228.694 155.341C229.87 153.092 231.903 151.946 234.293 148.228C236.682 144.51 239.532 141.574 240.713 135.785C241.893 129.997 245.62 124.464 241.752 114.985Z" fill="#3C8F7C"/>
<path d="M222.022 168.367C222.022 168.367 225.208 161.598 231.823 162.386C238.437 163.173 241.927 165.329 247.694 161.183C253.459 157.036 258.027 149.39 259.813 148.307C259.813 148.307 257.798 146.597 253.165 149.27C248.533 151.943 245.232 154.02 242.548 155.578C239.863 157.136 238.388 155.371 235.745 156.196C233.529 156.887 230.24 159.608 228.728 161.083C228.237 161.562 227.689 161.979 227.092 162.318C226.549 162.627 225.899 163.009 225.472 163.301C224.616 163.887 221.52 168.278 221.52 168.278L222.022 168.367Z" fill="#3C8F7C"/>
<path d="M220.041 166.582C220.041 166.582 224.34 158.396 223.809 153.778C223.278 149.16 219.247 144.895 220.062 142.261C220.876 139.627 225.619 133.099 224.378 127.129C224.378 127.129 222.312 131.718 221.129 132.57C219.945 133.422 212.525 136.242 212.338 142.203C212.152 148.164 218.08 150.946 219.226 152.98C220.372 155.015 222.447 155.495 222.201 156.613C221.955 157.73 221.416 161.879 219.797 165.719L220.041 166.582Z" fill="#3C8F7C"/>
<path d="M223.881 161.328L229.213 152.874C229.213 152.874 232.809 145.913 235.33 139.998C237.852 134.082 241.754 114.985 241.754 114.985C241.754 114.985 237.169 119.837 236.282 123.44C235.395 127.043 235.104 130.073 232.294 134.635C229.483 139.198 232.049 143.092 230.465 145.604C228.88 148.115 228.055 151.333 227.514 153.792C226.972 156.251 221.299 163.49 219.767 167.466C218.928 169.644 218.769 170.684 218.796 171.179C219.118 167.465 223.881 161.328 223.881 161.328Z" fill="#327F6B"/>
<path d="M240.882 159.507C237.903 159.414 235.401 158.628 231.434 160.358C227.467 162.088 224.854 164.313 224.854 164.313C224.854 164.313 222.703 166.675 221.741 167.961C221.6 168.159 221.516 168.277 221.516 168.277L222.021 168.367C222.021 168.367 225.206 161.598 231.821 162.386C238.436 163.173 241.926 165.329 247.693 161.183C253.458 157.036 258.026 149.39 259.811 148.308C259.811 148.308 254.09 150.951 250.32 153.59C246.551 156.229 243.863 159.6 240.882 159.507Z" fill="#327F6B"/>
<path d="M221.129 132.57C219.945 133.422 212.525 136.242 212.338 142.203C212.152 148.164 218.08 150.946 219.226 152.98C220.372 155.015 222.447 155.495 222.201 156.613C221.955 157.73 221.416 161.879 219.797 165.719L219.904 166.096C220.603 164.613 221.623 162.344 222.196 160.574C223.126 157.699 222.933 156.376 222.543 153.78C222.153 151.185 217.422 144.986 216.546 142.102C215.67 139.217 220.955 135.965 222.386 134.134C223.817 132.303 224.378 127.129 224.378 127.129C224.378 127.129 222.312 131.718 221.129 132.57Z" fill="#327F6B"/>
<path d="M141.799 230.031C146.18 224.352 170.199 193.926 185.862 188.854C203.151 183.257 186.857 205.487 186.857 205.487C186.857 205.487 217.527 171.951 228.781 174.975C239.099 177.746 228.781 198.533 228.781 198.533C228.781 198.533 240.401 187.022 254.492 187.022C268.206 187.022 244.911 227.847 243.654 230.031H141.799Z" fill="#E7EDF6"/>
<path d="M64.7309 229.858C50.728 210.816 33.704 193.216 13.4618 177.911C13.2598 177.758 12.9865 178.111 13.1899 178.267C32.3882 193.025 49.3735 210.451 63.6651 230.144L64.7309 229.858Z" fill="#256653"/>
<path d="M24.7584 194.958C25.2259 194.626 26.4393 193.366 28.0568 192.973C29.5887 192.455 31.5261 192.802 31.46 192.844C31.5002 192.936 30.1831 191.441 28.128 191.005C26.1531 190.429 23.4401 190.914 22.553 191.697C20.5406 193.059 20.3787 195.373 21.3772 195.802C22.3678 196.258 23.6913 195.627 24.7584 194.958Z" fill="#256653"/>
<path d="M16.5133 187.694C16.9808 187.362 18.1942 186.104 19.8116 185.709C21.3436 185.191 23.2809 185.538 23.2149 185.581C23.255 185.672 21.938 184.177 19.8829 183.742C17.908 183.165 15.195 183.65 14.3079 184.433C12.2955 185.795 12.1336 188.11 13.132 188.538C14.1227 188.994 15.4475 188.365 16.5133 187.694Z" fill="#256653"/>
<path d="M38.6341 191.732C38.1951 192.005 36.6359 192.554 35.9185 193.801C35.0871 194.924 35.0988 196.745 35.1571 196.703C35.2477 196.774 33.9009 195.034 33.8167 193.077C33.5668 191.133 34.5808 188.971 35.5766 188.515C37.3935 187.313 39.8812 188.098 40.1532 189.135C40.4536 190.176 39.5419 191.074 38.6341 191.732Z" fill="#256653"/>
<path d="M40.7684 165.775C53.2988 185.345 62.4441 207.086 67.6733 230.182L68.5319 229.952C63.3247 207.34 54.2403 185.637 41.7306 166.087C38.8233 161.544 35.6843 156.153 30.2401 154.382C30.1352 154.348 30.095 154.507 30.196 154.545C35.1675 156.42 38.0476 161.528 40.7684 165.775Z" fill="#256653"/>
<path d="M39.6223 153.638C39.2999 154.112 38.0645 155.35 37.7019 156.976C37.2149 158.518 37.5996 160.448 37.641 160.38C37.7342 160.419 36.2126 159.132 35.7373 157.086C35.1222 155.123 35.5522 152.4 36.3188 151.498C37.641 149.458 39.9513 149.252 40.3993 150.24C40.8746 151.223 40.2711 152.56 39.6223 153.638Z" fill="#256653"/>
<path d="M36.6236 171.108C37.0911 170.776 38.3045 169.518 39.922 169.123C41.454 168.605 43.3913 168.952 43.3253 168.995C43.3654 169.086 42.0484 167.591 39.9932 167.156C38.0183 166.579 35.3053 167.064 34.4182 167.847C32.4058 169.21 32.2439 171.524 33.2424 171.952C34.2344 172.408 35.5578 171.777 36.6236 171.108Z" fill="#256653"/>
<path d="M41.149 178.764C41.6165 178.432 42.8299 177.172 44.4474 176.779C45.9794 176.261 47.9167 176.608 47.8506 176.65C47.8908 176.742 46.5738 175.247 44.5186 174.812C42.5437 174.235 39.8307 174.72 38.9436 175.503C36.9312 176.865 36.7693 179.18 37.7678 179.608C38.7584 180.064 40.0832 179.433 41.149 178.764Z" fill="#256653"/>
<path d="M45.9521 162.302C45.5584 162.719 44.1443 163.747 43.5292 165.295C42.8053 166.741 42.8804 168.707 42.9322 168.648C43.0176 168.701 41.7175 167.189 41.5711 165.094C41.2733 163.058 42.128 160.437 43.0254 159.668C44.6532 157.863 46.9661 158.023 47.2536 159.07C47.5709 160.115 46.7628 161.339 45.9521 162.302Z" fill="#256653"/>
<path d="M52.6054 170.985C52.046 171.281 50.0892 171.82 49.1063 173.283C47.9926 174.586 47.8515 176.814 47.9253 176.768C48.0302 176.864 46.5305 174.62 46.5953 172.216C46.4567 169.817 47.8825 167.259 49.1387 166.785C51.4645 165.469 54.4404 166.643 54.6852 167.935C54.9662 169.238 53.7722 170.258 52.6054 170.985Z" fill="#256653"/>
<path d="M59.6081 184.136C59.0059 184.334 56.987 184.536 55.7723 185.814C54.4553 186.911 53.9412 189.082 54.0228 189.051C54.1095 189.163 53.0101 186.698 53.4776 184.342C53.7443 181.952 55.5793 179.672 56.8977 179.415C59.4113 178.51 62.1476 180.166 62.1709 181.482C62.2279 182.811 60.8798 183.615 59.6081 184.136Z" fill="#256653"/>
<path d="M28.1019 156.718C28.3647 156.501 29.0265 155.704 29.9667 155.399C30.8498 155.026 32.0115 155.147 31.9739 155.174C32.0011 155.227 31.1581 154.4 29.9226 154.233C28.7299 153.977 27.1448 154.383 26.6553 154.885C25.5248 155.779 25.53 157.155 26.1386 157.365C26.7447 157.592 27.4997 157.161 28.1019 156.718Z" fill="#256653"/>
<path d="M30.6143 151.13C30.6027 151.47 30.3747 152.482 30.7075 153.412C30.951 154.34 31.7552 155.186 31.7552 155.139C31.8135 155.129 30.6428 154.966 29.757 154.09C28.8272 153.3 28.181 151.798 28.2794 151.104C28.2976 149.663 29.3905 148.827 29.928 149.181C30.477 149.521 30.5975 150.383 30.6143 151.13Z" fill="#256653"/>
<path d="M10.5765 180.296C10.8381 180.08 11.5011 179.282 12.4413 178.976C13.3245 178.603 14.4861 178.724 14.4485 178.751C14.477 178.804 13.6327 177.977 12.3972 177.809C11.2032 177.554 9.61946 177.96 9.12995 178.462C7.99941 179.356 8.00459 180.732 8.61324 180.942C9.2193 181.17 9.97429 180.739 10.5765 180.296Z" fill="#256653"/>
<path d="M13.6066 174.66C13.5678 174.998 13.257 175.987 13.5134 176.941C13.6805 177.886 14.4121 178.796 14.416 178.749C14.4756 178.744 13.3217 178.485 12.5098 177.54C11.6473 176.676 11.1267 175.127 11.2808 174.442C11.4168 173.007 12.5745 172.264 13.0822 172.661C13.6028 173.046 13.652 173.914 13.6066 174.66Z" fill="#256653"/>
<path d="M16.3015 212.257C29.0974 213.66 41.014 219.309 52.4864 224.816C60.2228 228.53 59.8317 229.588 61.4077 230.141C61.6628 230.231 61.9179 229.953 61.7936 229.707C61.1875 228.507 59.5986 227.695 58.4926 227.003C57.2054 226.199 55.8599 225.49 54.4963 224.827C51.576 223.409 48.5807 222.133 45.6035 220.839C39.5481 218.208 33.3955 215.734 26.9982 214.059C23.4914 213.14 19.9224 212.477 16.3106 212.152C16.242 212.147 16.2342 212.25 16.3015 212.257Z" fill="#256653"/>
<path d="M26.7383 208.124C26.6554 208.648 26.1076 210.173 26.4456 211.679C26.6451 213.163 27.7303 214.63 27.738 214.556C27.8313 214.552 26.0481 214.073 24.8424 212.546C23.5526 211.144 22.8391 208.693 23.1252 207.633C23.4296 205.402 25.284 204.318 26.0494 204.969C26.8354 205.605 26.8561 206.964 26.7383 208.124Z" fill="#256653"/>
<path d="M38.0108 212.161C37.9279 212.685 37.3801 214.209 37.7181 215.715C37.9175 217.201 39.0027 218.667 39.0105 218.593C39.1037 218.588 37.3205 218.11 36.1149 216.583C34.8251 215.18 34.1115 212.729 34.3977 211.67C34.702 209.438 36.5565 208.355 37.3218 209.006C38.1066 209.642 38.1286 211 38.0108 212.161Z" fill="#256653"/>
<path d="M49.4649 217.265C49.382 217.79 48.8342 219.314 49.1722 220.82C49.3716 222.305 50.4568 223.771 50.4646 223.697C50.5578 223.692 48.7746 223.214 47.569 221.688C46.2792 220.285 45.5656 217.834 45.8518 216.774C46.1561 214.543 48.0106 213.459 48.7759 214.111C49.562 214.746 49.5827 216.105 49.4649 217.265Z" fill="#256653"/>
<path d="M23.3736 218.656C23.6054 218.222 24.0535 216.794 25.1413 215.873C26.1177 214.89 27.7338 214.415 27.7002 214.473C27.7662 214.529 26.185 213.885 24.4445 214.338C22.7105 214.652 20.8173 216.061 20.4365 217C19.4148 218.813 20.1762 220.648 21.1047 220.595C22.0384 220.566 22.8128 219.577 23.3736 218.656Z" fill="#256653"/>
<path d="M35.0992 222.805C35.331 222.372 35.779 220.943 36.8668 220.022C37.8433 219.04 39.4594 218.564 39.4258 218.623C39.4918 218.678 37.9106 218.035 36.1701 218.488C34.4361 218.801 32.5428 220.21 32.1621 221.149C31.1404 222.962 31.9018 224.797 32.8303 224.744C33.764 224.716 34.5384 223.727 35.0992 222.805Z" fill="#256653"/>
<path d="M14.4439 214.384C14.6472 214.143 15.116 213.305 15.9215 212.87C16.6636 212.382 17.7423 212.298 17.7125 212.329C17.7462 212.373 16.8384 211.76 15.6858 211.813C14.5553 211.781 13.18 212.416 12.8174 212.956C11.9368 213.959 12.1725 215.211 12.7617 215.301C13.3535 215.407 13.9699 214.888 14.4439 214.384Z" fill="#256653"/>
<path d="M15.7968 208.871C15.8434 209.183 15.8059 210.143 16.2643 210.934C16.6424 211.738 17.5165 212.375 17.5075 212.332C17.5593 212.313 16.465 212.36 15.5106 211.711C14.5303 211.148 13.6911 209.886 13.6639 209.237C13.4386 207.922 14.2946 206.978 14.845 207.209C15.4031 207.428 15.6569 208.194 15.7968 208.871Z" fill="#256653"/>
<path d="M201.222 203.614C236.602 168.235 236.602 110.873 201.222 75.494C165.843 40.1145 108.482 40.1145 73.1022 75.494C37.7227 110.873 37.7227 168.235 73.1022 203.614C108.482 238.994 165.843 238.994 201.222 203.614Z" fill="#B75742"/>
<path d="M195.581 197.972C227.844 165.709 227.844 113.4 195.581 81.1365C163.318 48.8733 111.009 48.8733 78.7458 81.1365C46.4826 113.4 46.4826 165.709 78.7458 197.972C111.009 230.235 163.318 230.235 195.581 197.972Z" fill="#F47458"/>
<path d="M186.287 188.678C213.417 161.548 213.417 117.56 186.287 90.4299C159.156 63.2993 115.169 63.2993 88.0383 90.4299C60.9077 117.56 60.9077 161.548 88.0383 188.678C115.169 215.809 159.156 215.809 186.287 188.678Z" fill="#FCF5EB"/>
<path d="M174.089 176.48C194.483 156.087 194.483 123.022 174.089 102.628C153.696 82.234 120.631 82.234 100.237 102.628C79.843 123.022 79.843 156.087 100.237 176.48C120.631 196.874 153.696 196.874 174.089 176.48Z" fill="#F47458"/>
<path d="M163.384 165.776C177.866 151.294 177.866 127.814 163.384 113.332C148.902 98.8504 125.422 98.8504 110.941 113.332C96.4587 127.814 96.4587 151.294 110.941 165.776C125.422 180.258 148.902 180.258 163.384 165.776Z" fill="#FCF5EB"/>
<path d="M146.621 139.553C146.621 144.776 142.388 149.01 137.165 149.01C131.942 149.01 127.709 144.776 127.709 139.553C127.709 134.331 131.942 130.097 137.165 130.097C142.388 130.097 146.621 134.331 146.621 139.553Z" fill="#B75742"/>
<path d="M195.223 92.6152L194.888 86.4717L215.685 70.2039L214.599 79.0992L194.217 95.042L195.223 92.6152Z" fill="#184655"/>
<path d="M196.761 94.6847L202.643 96.4899L223.441 80.2221L214.545 79.1356L194.162 95.0771L196.761 94.6847Z" fill="#12353D"/>
<path d="M136.453 140.337C136.926 140.942 137.8 141.048 138.405 140.576L197.001 94.7442L195.287 92.5543L136.691 138.386C136.088 138.86 135.98 139.732 136.453 140.337Z" fill="#184655"/>
<path d="M223.883 157.353C223.883 157.941 224.103 158.417 224.374 158.417C224.644 158.417 224.864 157.94 224.864 157.353C224.864 156.765 224.644 156.29 224.374 156.29C224.103 156.29 223.883 156.767 223.883 157.353Z" fill="#F7A491"/>
<path d="M219.266 226.303C219.394 225.388 219.434 223.981 219.42 222.359H222.626C222.292 224.657 222.032 226.446 222.032 226.446L222.112 227.172L222.115 229.317H215.1C215.1 229.317 216.589 228.65 218.671 227.331C218.824 227.234 219.179 226.923 219.266 226.303Z" fill="#F7A491"/>
<path d="M232.94 225.764L232.008 223.093H234.449C234.576 224.807 234.624 225.965 234.624 225.965L235.244 227.721L235.875 229.809C235.875 229.809 233.799 230.344 232.71 229.743L232.83 227.665L232.94 225.764Z" fill="#F7A491"/>
<path d="M220.279 167.706C221.126 166.548 224.619 163.197 225.006 163.203C226.137 163.222 229.849 163.224 230.576 163.593L230.541 169.973C230.423 170.509 227.86 178.852 228.009 180.678L227.991 180.695C225.843 182.769 222.455 182.606 220.49 180.333C220.49 180.333 220.499 177.803 220.196 175.494C219.721 171.88 218.176 170.579 220.279 167.706Z" fill="#FFB420"/>
<path d="M226.143 159.611C226.143 159.611 226.045 161.965 226.257 162.857C226.47 163.749 226.751 163.817 224.935 164.089C224.223 164.195 223.535 164.354 223.535 164.354C223.535 164.354 223.722 163.044 223.75 162.491C223.797 161.579 223.54 158.765 223.54 158.765L226.143 159.611Z" fill="#F7A491"/>
<path d="M224.76 160.783C224.387 160.985 224.038 161.104 223.716 161.153C223.654 160.042 223.539 158.766 223.539 158.766L226.023 159.572C225.734 160.054 225.325 160.477 224.76 160.783Z" fill="#F47458"/>
<path d="M232.831 227.656C233.789 228.084 234.82 227.826 235.234 227.69L235.371 228.062L235.9 229.823C235.9 229.823 233.798 230.345 232.709 229.743L232.831 227.656Z" fill="#E25A44"/>
<path d="M222.186 229.85H214.893C214.624 229.825 214.558 229.605 214.651 229.469C214.844 229.19 215.695 228.984 216.651 228.538C218.328 228.716 221.848 227.557 222.112 227.168C222.266 227.946 222.336 229.816 222.186 229.85Z" fill="#E25A44"/>
<path d="M222.738 180.801L227.012 211.203L230.903 225.222H235.138C235.138 225.222 234.155 213.928 232.049 209.928C232.049 209.928 231.13 199.207 230.209 192.65C230.072 191.67 230.753 189.126 230.576 188.468C229.211 183.414 228.008 180.679 228.008 180.679L222.738 180.801Z" fill="#355389"/>
<path d="M225.381 193.946L224.391 205.625C224.391 205.625 225.403 212.299 224.709 216.728C224.015 221.157 223.095 225.221 223.095 225.221H219.204L218.431 203.165C218.431 203.165 216.935 191.182 217.453 187.932C217.971 184.683 220.491 180.335 220.491 180.335L226.614 180.614C226.614 180.614 228.274 186.564 227.993 188.56C227.783 190.043 225.381 193.946 225.381 193.946Z" fill="#466EB6"/>
<path d="M231.398 173.915C236.025 172.526 234.786 168.448 234.76 168.602C234.773 168.476 235.209 167.962 235.424 167.523C236.323 165.695 235.138 163.492 233.78 162.73C234.68 160.404 233.786 158.173 232.091 157.243C231.235 156.775 230.515 156.106 229.936 155.335C228.653 153.621 226.318 151.898 223.51 152.46C220.733 153.171 224.452 154.779 224.083 157.452C223.896 158.806 224.432 158.612 225.269 159.701C224.065 161.819 224.761 165.372 226.608 166.984C225.705 170.801 226.677 175.333 231.398 173.915Z" fill="#184655"/>
<path d="M227.96 155.268C228.507 157.523 225.549 159.16 223.206 159.22C221.684 159.258 220.984 159.102 220.738 157.497C220.339 154.894 221.412 153.308 222.914 152.651C224.851 151.804 227.51 153.409 227.96 155.268Z" fill="#184655"/>
<path d="M224.521 153.752C224.521 153.752 225.55 154.099 226.099 155.139C226.648 156.179 226.375 159.51 224.091 160.608C221.806 161.706 220.757 159.212 220.923 157.372C221.089 155.53 221.751 153.123 224.521 153.752Z" fill="#F7A491"/>
<path d="M223.094 158.877L221.473 158.853C221.473 158.853 221.501 159.48 222.213 159.512C223.082 159.551 223.094 158.877 223.094 158.877Z" fill="white"/>
<path d="M226.913 157.658C227.251 155.937 227.119 154.633 225.896 154.003C224.674 153.374 223.629 152.75 222.534 153.882L222.287 154.021C222.287 154.021 224.351 154.593 224.467 155.689C224.582 156.786 225.68 158.089 225.51 158.628C225.341 159.167 225.146 160.24 225.146 160.24L225.598 159.868C225.598 159.867 226.575 159.379 226.913 157.658Z" fill="#184655"/>
<path d="M224.782 157C224.612 157.475 224.741 157.952 225.07 158.066C225.399 158.18 225.806 157.886 225.975 157.41C226.145 156.935 226.017 156.459 225.688 156.345C225.359 156.231 224.953 156.525 224.782 157Z" fill="#F7A491"/>
<path d="M51.1471 197.991H72.1779L67.1585 229.923H69.3277L97.6363 49.8271H95.4672L95.0412 52.5401H73.9676L74.3937 49.8271H72.2246L43.8887 229.923H46.0578L51.1471 197.991ZM87.2271 102.254L83.7552 124.341H62.7024L66.1678 102.254H87.2271ZM66.4566 100.409L69.9221 78.321H90.9891L87.5172 100.409H66.4566ZM83.4652 126.188L79.9933 148.276H58.9469L62.4123 126.188H83.4652ZM79.7032 150.122L76.2313 172.21H55.1927L58.6581 150.122H79.7032ZM94.7511 54.3868L91.2792 76.4743H70.2121L73.6776 54.3868H94.7511ZM51.4372 196.144L54.9026 174.056H75.9412L72.4693 196.144H51.4372Z" fill="#FFB420"/>
<path d="M140.743 20.108C140.72 20.1883 140.545 20.7425 140.277 21.5687L143.089 22.1359C143.119 21.6762 143.148 21.2916 143.18 21.0119C143.412 19.0603 144.329 18.5307 144.8 17.448C145.272 16.3654 147.101 15.6778 146.876 15.31C146.651 14.9422 144.945 16.4302 144.536 16.2709C144.127 16.1116 145.994 13.8726 145.77 13.5747C145.357 13.0256 143.582 15.9225 143.373 15.683C143.165 15.4434 144.852 12.3859 144.176 12.347C143.501 12.3082 142.751 15.6571 142.397 15.5094C142.042 15.3618 143.378 12.4247 142.7 11.9857C142.336 11.7513 141.047 17.2137 140.472 17.5283C139.897 17.843 139.088 15.6907 138.539 15.8733C137.991 16.0559 140.839 19.77 140.743 20.108Z" fill="#F79C8D"/>
<path d="M114.554 8.49704C114.541 8.57992 114.473 9.15749 114.377 10.02L111.581 9.37634C111.744 8.94511 111.878 8.58251 111.962 8.31574C112.555 6.44317 111.938 5.58199 111.957 4.40095C111.973 3.21991 110.59 1.83815 110.948 1.59728C111.305 1.35511 112.244 3.41416 112.683 3.43747C113.122 3.46078 112.344 0.650631 112.671 0.471921C113.275 0.141696 113.697 3.51388 113.986 3.38179C114.275 3.2497 113.999 -0.231265 114.631 0.0121952C115.261 0.255655 114.563 3.61489 114.947 3.62654C115.331 3.6382 115.325 0.411056 116.124 0.291916C116.551 0.228461 115.472 5.7361 115.866 6.26057C116.26 6.78505 117.885 5.15723 118.31 5.54962C118.732 5.94071 114.606 8.14998 114.554 8.49704Z" fill="#F79C8D"/>
<path d="M143.427 21.3032C143.427 21.3032 140.075 20.5016 140.044 20.771C139.34 26.6658 139.024 28.7974 138.905 28.8595C138.498 29.068 133.115 24.1457 132.155 23.8116C131.697 23.6523 131.197 23.6782 130.718 23.6925C129.575 23.7262 129.35 23.73 129.35 23.73C129.318 23.7326 129.309 23.7326 129.309 23.7326L129.315 24.8062C130.601 25.9639 133.547 43.4956 133.794 43.484C134.072 43.471 139.893 44.9357 139.79 44.4462C139.773 44.3659 135.844 41.1504 134.729 36.5091C134.355 34.9512 134.17 33.2729 133.968 31.8057C135.262 32.4545 140.314 34.9396 141.114 34.6119C143.603 33.5902 143.427 21.3032 143.427 21.3032Z" fill="#FFB420"/>
<path d="M153.451 52.4326C153.451 52.4326 158.867 56.675 159.048 57.4274C159.308 58.5113 164.268 57.0868 163.072 56.8667C162.797 56.8162 161.917 56.5921 161.844 56.5546C161.457 56.3474 156.638 50.5406 156.638 50.5406L153.451 52.4326Z" fill="#F7A491"/>
<path d="M165.397 56.8654L161.939 56.5844C161.939 56.5844 160.951 57.4028 159.051 57.4404C159.051 57.4404 158.748 58.308 158.892 59.322C158.917 59.4968 158.947 60.0252 159.123 60.0135C159.761 59.9695 161.464 59.546 163.403 59.1588C163.403 59.1588 166.01 58.6072 167.514 57.7058C169.02 56.8071 165.397 56.8654 165.397 56.8654Z" fill="#F7CC7F"/>
<path d="M129.187 41.7915C129.187 41.7915 133.152 42.4585 137.539 41.4315C142.614 40.244 148.227 39.1458 149.872 40.1029C151.195 40.8721 159.461 53.3611 159.461 53.3611L156.269 55.6908L147.168 45.5004C147.168 45.5004 135.557 49.7843 132.949 49.3103C127.008 48.2277 126.924 43.4841 129.187 41.7915Z" fill="#355389"/>
<path d="M141.584 60.8111C141.584 60.8111 141.343 67.3613 141.193 68.4711C141.044 69.5757 143.973 72.9026 143.599 71.7448C143.512 71.4781 143.291 70.5975 143.291 70.5159C143.29 70.0769 144.377 62.6047 144.377 62.6047L141.584 60.8111Z" fill="#F7A491"/>
<path d="M145.472 74.1314L143.309 70.6155C143.309 70.6155 142.12 70.135 141.183 68.4813C141.183 68.4813 140.275 68.6263 139.451 69.235C139.309 69.3399 138.34 70.0482 138.408 70.2114C138.656 70.8123 139.975 72.1021 141.417 73.5085C141.417 73.5085 143.462 75.157 144.969 76.0545C146.478 76.9519 145.472 74.1314 145.472 74.1314Z" fill="#F7CC7F"/>
<path d="M148.014 47.8976C146.627 46.0483 135.434 44.2923 135.434 44.2923L132.313 38.2939L125.412 42.5492C125.412 42.5492 126.102 48.0413 126.62 49.5086C127.311 51.464 131.948 51.5637 134.781 51.5339C137.388 51.5068 142.149 52.039 142.149 52.039L140.539 66.2439C140.539 66.2439 143.704 66.9639 144.594 66.8473C144.692 66.8344 149.739 50.1975 148.014 47.8976Z" fill="#466EB6"/>
<path d="M129.345 23.7431L125.452 23.9607C125.452 23.9607 125.363 23.9879 125.336 23.993C125.019 24.0513 125.307 35.3981 125.59 39.6366C125.872 43.8752 126.446 45.6545 126.446 45.6545C126.446 45.6545 131.727 44.7169 133.347 44.0876C134.019 43.826 135.647 41.7915 135.647 41.7915C135.647 41.7915 133.984 39.5563 133.146 35.9239C132.5 33.1228 131.703 28.1578 131.248 27.1218C130.201 24.7415 129.345 23.7431 129.345 23.7431Z" fill="#184655"/>
<path d="M125.563 20.5225L125.453 23.9607C125.453 23.9607 127.973 28.3042 129.268 27.6981C130.353 27.1905 129.39 23.8869 129.39 23.8869C129.39 23.8869 129.202 23.1293 128.941 22.2591C128.758 21.6504 128.606 20.9926 128.618 20.5095C128.645 19.3337 125.563 20.5225 125.563 20.5225Z" fill="#F7A491"/>
<path d="M128.618 20.5082C128.645 19.3336 125.563 20.5212 125.563 20.5212L125.553 20.8566C125.656 21.0133 125.772 21.1454 125.897 21.2477C126.726 21.9198 127.924 22.2228 128.899 22.1114C128.736 21.5481 128.608 20.9537 128.618 20.5082Z" fill="#F47458"/>
<path d="M128.572 12.6812C128.572 12.6812 129.857 14.6172 129.953 16.2463C130.048 17.8754 129.704 18.9878 129.704 18.9878L125.582 14.0616L128.572 12.6812Z" fill="#F7CC7F"/>
<path d="M130.382 15.9137C130.44 16.4848 130.218 16.9743 129.887 17.008C129.555 17.0416 129.239 16.6065 129.181 16.0367C129.123 15.4656 129.344 14.9761 129.677 14.9424C130.007 14.9088 130.323 15.3439 130.382 15.9137Z" fill="#F48C7F"/>
<path d="M124.249 14.8517C124.155 14.831 124.164 19.5746 125.539 20.6909C126.914 21.8072 129.306 21.9056 130.005 20.7802C130.778 19.537 130.043 14.5383 127.998 13.4777C125.953 12.4158 124.249 14.8517 124.249 14.8517Z" fill="#F7A491"/>
<path d="M123.901 11.9094C122.852 12.8301 122.343 13.5022 121.634 15.1378C120.761 17.1489 122.492 19.2339 123.945 20.0614C125.398 20.8902 125.519 21.8912 125.519 21.8912L125.578 21.2735C125.607 21.0482 125.599 20.8643 125.56 20.7063C125.515 20.5198 125.428 20.3657 125.353 20.2051C125.23 19.941 124.832 19.0358 124.677 18.7962C124.268 18.1655 124.187 18.0295 124.389 17.4299C124.545 16.9689 124.365 15.9524 124.606 15.1922L126.561 14.77C126.561 14.77 127.785 14.4761 128.403 13.7625C130.177 11.7177 126.67 9.43462 123.901 11.9094Z" fill="#F7CC7F"/>
<path d="M124.855 17.9504C125.096 18.471 125.046 19.0059 124.744 19.147C124.441 19.2869 124.001 18.9787 123.76 18.4581C123.519 17.9375 123.569 17.4027 123.871 17.2615C124.174 17.1203 124.614 17.4298 124.855 17.9504Z" fill="#F7A491"/>
<path d="M125.453 23.9606C125.453 23.9606 121.593 23.7806 120.597 23.33C119.994 23.0567 115.033 19.0603 115.033 19.0603L115.088 8.35846L111.599 8.09299C111.599 8.09299 109.79 19.9215 110.417 21.2165C111.065 22.553 118.324 28.058 119.776 30.446C120.613 31.8226 122.357 50.5366 122.621 50.705C124.5 51.6827 130.302 52.6591 130.165 52.066C126.39 35.6765 125.453 23.9606 125.453 23.9606Z" fill="#FFB420"/>
<path d="M127.102 19.1847L129.348 18.4712C129.348 18.4712 129.567 19.3414 128.588 19.6833C127.394 20.1016 127.102 19.1847 127.102 19.1847Z" fill="white"/>
<path d="M222.982 60.8292C223.272 60.7799 223.417 60.3979 223.269 60.1571C223.032 59.7698 222.8 59.3788 222.567 58.989C222.052 58.1291 222.005 58.111 222.047 58.0125C222.146 57.7781 222.588 57.8856 222.747 57.94C223.099 58.0604 223.423 58.2715 223.797 58.3194C224.528 58.4127 225.059 57.8545 224.735 57.1462C224.437 56.4987 224.102 55.8628 223.761 55.2322C224.545 55.3927 225.323 55.5753 226.108 55.7243C226.386 55.7774 226.578 55.5287 226.465 55.271C226.216 54.6986 225.478 53.0022 225.235 52.4427C225.171 52.2977 224.8 51.6593 224.928 51.5362C225.043 51.4262 225.581 51.5751 225.704 51.5932C226.385 51.6916 226.626 51.7175 228.849 51.9895C229.115 52.0219 229.335 51.6606 229.178 51.4391C227.625 49.27 227.896 49.0731 227.343 48.7688C227.219 48.7002 227.101 48.7844 227.083 48.9126C227.034 49.2389 227.044 49.3205 227.629 50.3552C227.781 50.6233 227.939 50.8861 228.103 51.1451C225.411 50.7644 224.741 50.6038 224.376 51.2086C224.124 51.6282 224.245 51.7421 225.651 54.9486C224.839 54.7375 224.018 54.5782 223.195 54.4008C222.883 54.3334 222.654 54.6287 222.787 54.9175C223.865 57.2316 223.986 57.2485 224.027 57.4777C224.028 57.4842 224.169 57.5166 223.958 57.4971C223.601 57.4648 222.941 56.9442 222.256 57.0244C221.654 57.0944 221.081 57.5865 221.216 58.243C221.295 58.6251 221.438 58.7597 222.154 60.034C221.447 60.1739 220.761 60.3979 220.056 60.7204C219.751 60.8602 219.568 60.9923 219.378 61.2708C219.222 61.4987 219.415 61.8678 219.696 61.8509C220.493 61.8082 220.84 61.1905 222.982 60.8292Z" fill="#F7CC7F"/>
<path d="M237.128 67.2305C237.027 66.5519 236.979 65.9018 236.998 65.1896C237.002 65.0549 236.978 64.805 237.114 64.7208C237.441 64.5175 237.93 65.0795 239.186 65.3541C239.731 65.4732 240.848 65.7672 241.087 65.0355C241.21 64.6599 241.13 64.186 241.129 63.7962C241.127 63.5009 241.138 63.2057 241.143 62.9104C243.183 63.4854 243.066 63.6058 243.528 63.4038C243.649 63.352 243.711 63.1681 243.64 63.0554C243.374 62.6359 243.429 62.7563 240.863 62.0039C240.629 61.9353 240.341 62.0971 240.343 62.3639C240.344 62.7641 240.45 64.5758 240.427 64.7998C240.406 64.7856 240.308 64.8037 240.287 64.8037C239.435 64.7739 238.719 64.4657 237.947 64.1471C237.314 63.8855 236.454 63.8804 236.256 64.691C236.148 65.1313 236.192 66.0378 236.258 66.7371C235.016 66.3396 233.777 65.9329 232.532 65.5444C232.289 65.468 231.939 65.6493 231.959 65.9407C232.013 66.7514 232.042 67.5607 232.062 68.3714C231.332 68.1318 230.643 67.7783 230.016 67.3263C229.555 66.9935 228.969 67.6397 230.189 68.3999C230.858 68.8467 231.594 69.173 232.382 69.3815C232.643 69.4501 232.956 69.2831 232.957 68.9839C232.96 68.181 232.926 67.3769 232.876 66.574C234.118 66.9547 235.365 67.3225 236.605 67.7032C236.912 67.7938 237.174 67.531 237.128 67.2305Z" fill="#F47458"/>
<path d="M241.425 83.4996C241.43 83.747 241.587 83.9037 241.82 83.9464C242.961 84.1523 244.09 84.2585 245.235 84.0629C245.83 83.9619 245.618 83.0749 245.035 83.137C244.122 83.2354 243.18 83.2885 242.256 83.1694C242.278 82.4843 242.366 81.8058 242.535 81.1427C242.598 80.8902 242.432 80.5522 242.137 80.56C241.4 80.5807 238.615 80.7426 238.591 80.7724C238.594 80.7672 238.598 80.7478 238.589 80.6985C238.534 80.402 238.752 79.3958 238.73 78.936C238.704 78.4193 238.019 78.2329 237.603 78.1927C236.76 78.1111 235.825 78.7198 235.004 78.3921C234.214 78.0775 235.103 76.8381 234.465 75.8695C233.975 75.1236 233.13 75.3476 231.798 75.604C231.471 75.6675 231.153 75.7322 230.987 76.0534C230.947 76.1324 230.939 76.2502 231.013 76.3189C231.413 76.6918 231.895 76.5235 233.112 76.3227C233.268 76.2968 233.529 76.2049 233.666 76.3201C234.126 76.7022 233.453 77.7511 233.998 78.6356C234.421 79.3245 235.271 79.4515 235.991 79.3647C236.556 79.2961 237.252 78.9684 237.825 79.1717C237.794 79.6625 237.748 80.1559 237.755 80.6455C237.761 81.1803 238.034 81.5519 238.573 81.596C239.169 81.6452 239.788 81.5636 240.381 81.5364C240.781 81.5183 241.18 81.5014 241.58 81.4794C241.468 82.1438 241.412 82.8172 241.425 83.4996Z" fill="#3CB4C5"/>
<path d="M208.611 52.3806C205.426 49.7673 203.802 52.119 204.719 53.2029C205.111 53.6678 205.809 53.7053 206.161 53.1796C206.322 52.9387 206.085 52.5411 205.784 52.6344C205.536 52.7121 205.477 52.4298 205.74 52.321C206.095 52.1747 206.526 52.435 206.832 52.5968C207.546 52.975 208.477 53.4554 208.598 54.3503C208.78 55.6854 207.421 57.0982 205.409 56.32C202.507 55.1972 202.644 50.4484 205.722 49.6598C207.397 49.2311 209.197 49.9421 210.224 51.32C210.424 51.5893 210.783 51.2733 210.674 51.004C209.853 48.9592 207.243 48.1796 205.262 48.8724C203.232 49.5834 202.221 51.724 202.524 53.7934C202.842 55.9625 204.697 57.7678 206.96 57.536C209.447 57.2821 210.839 54.2078 208.611 52.3806Z" fill="#3CB4C5"/>
<path d="M239.988 90.7336C239.468 90.3697 238.396 90.1469 238.046 90.854C237.884 91.1829 237.975 91.5883 238.357 91.7139C238.731 91.8369 239.08 91.6349 239.369 91.9819C239.616 92.2785 239.467 92.7046 239.242 92.9713C238.553 93.782 237.083 93.5334 236.259 93.084C234.951 92.3692 234.723 90.4979 236.134 89.6017C236.575 89.322 237.088 89.2599 237.587 89.1446C237.862 89.0799 237.995 88.6434 237.703 88.4971C236.583 87.9312 235.201 88.6577 234.538 89.6095C233.841 90.6092 233.87 92.0337 234.515 93.0516C235.236 94.1899 236.692 94.7558 238.001 94.7416C240.722 94.7105 241.672 91.9107 239.988 90.7336Z" fill="#3C8F7C"/>
<path d="M186.248 174.689C186.166 174.976 186.118 175.072 186.011 175.265C185.328 176.51 183.741 178.285 183.741 178.285L182.514 175.52C182.514 175.52 182.713 174.653 183.06 173.411C184.245 173.72 185.374 173.899 186.248 174.689Z" fill="#F8A492"/>
<path d="M179.213 172.29C179.213 172.29 186.058 175.238 186.28 175.182C186.422 175.146 189.087 170.685 189.116 166.49C189.129 164.553 187.116 162.222 184.872 162.683C183.741 162.915 183.76 163.229 182.086 165.659C180.415 168.088 179.213 172.29 179.213 172.29Z" fill="#466EB6"/>
<path d="M173.369 225.139C173.369 225.139 173.53 227.828 173.532 227.833C173.591 228.175 173.827 229.018 173.827 229.327C173.827 230.493 168.292 228.338 169.533 227.821C169.645 227.775 170.233 227.421 170.27 227.024C170.327 226.412 170.47 225.176 170.47 225.176L173.369 225.139Z" fill="#F7A491"/>
<path d="M169.547 227.811C169.547 227.811 170.847 228.167 171.511 228.257C172.175 228.346 173.055 227.595 173.525 227.798C174.043 228.021 174.022 230.03 174.022 230.03C174.022 230.03 167.054 230.602 165.093 230.01C164.319 229.777 166.891 228.643 169.547 227.811Z" fill="#3C8F7C"/>
<path d="M184.693 225.139C184.693 225.139 184.855 227.828 184.856 227.833C184.916 228.175 185.151 229.018 185.151 229.327C185.151 230.493 179.616 228.338 180.857 227.821C180.97 227.775 181.732 227.157 181.769 226.761C181.826 226.149 181.796 225.177 181.796 225.177L184.693 225.139Z" fill="#F7A491"/>
<path d="M180.871 227.811C180.871 227.811 182.171 228.167 182.835 228.257C183.499 228.346 184.379 227.595 184.849 227.798C185.367 228.021 185.388 230.03 185.388 230.03C185.388 230.03 178.387 230.696 176.418 230.01C175.654 229.745 178.213 228.643 180.871 227.811Z" fill="#3C8F7C"/>
<path d="M184.18 158.296L184.808 162.265C184.808 162.265 182.417 164.185 181.023 163.78C179.853 163.441 180.655 161.911 180.655 161.911C180.655 161.911 181.278 159.793 181.086 158.682C180.896 157.571 184.18 158.296 184.18 158.296Z" fill="#F7A491"/>
<path d="M183.728 159.495C183.128 159.779 181.944 160.164 181.021 160.258C181.11 159.702 181.16 159.114 181.085 158.68C180.997 158.168 181.648 158.047 182.376 158.064C183.328 158.146 184.177 158.294 184.177 158.294L184.298 159.057C184.118 159.249 183.927 159.402 183.728 159.495Z" fill="#FE875E"/>
<path d="M187.196 153.718C187.295 153.718 186.251 158.152 184.636 158.915C183.02 159.677 180.611 159.28 180.159 158.086C179.659 156.765 181.483 152.242 183.756 151.667C186.028 151.092 187.196 153.718 187.196 153.718Z" fill="#F7A491"/>
<path d="M185.327 149.644C186.617 150.388 187.21 151.492 187.409 151.944C188.015 152.231 188.748 152.853 189.099 154.529C189.532 156.588 187.995 158.175 186.364 158.653C184.734 159.131 184.483 160.21 184.483 160.21L184.297 159.048C184.297 159.048 184.66 158.037 185.205 157.532C185.75 157.025 184.946 156.288 184.876 155.686C184.822 155.223 185.163 154.324 185.089 153.564C185.089 153.564 184.182 152.191 183.29 151.852C181.767 151.274 183.671 148.689 185.327 149.644Z" fill="#13375B"/>
<path d="M184.639 156.458C184.428 156.97 184.515 157.479 184.832 157.594C185.149 157.709 185.578 157.387 185.789 156.875C186 156.364 185.913 155.855 185.596 155.739C185.28 155.626 184.85 155.947 184.639 156.458Z" fill="#F7A491"/>
<path d="M178.622 176.288L169.219 174.755C169.219 174.755 170.288 172.061 170.67 172.061C171.052 172.061 177.781 174.998 177.781 174.998L178.316 176.073L178.622 176.288Z" fill="#F8A492"/>
<path d="M183.439 182.736C183.439 182.736 184.377 187.271 183.995 190.709C183.613 194.148 183.583 206.363 183.583 206.363L185.041 225.907L181.58 225.983C181.58 225.983 177.476 206.447 177.552 206.95C177.629 207.451 176.176 193.196 176.176 193.196L181.068 182.307L183.439 182.736Z" fill="#184655"/>
<path d="M182.521 182.521C182.521 182.521 183.133 186.604 182.369 188.395C181.605 190.186 175.811 207.758 175.734 209.192C175.658 210.624 173.731 226.461 173.731 226.461L169.706 226.348L168.836 208.741L170.659 186.612L172.43 181.018L182.521 182.521Z" fill="#13375B"/>
<path d="M184.808 162.265C184.808 162.265 183.816 162.916 182.89 162.841C181.964 162.766 180.656 161.911 180.656 161.911L180.838 161.295C180.838 161.295 183.232 160.946 183.293 160.984C183.352 161.02 184.808 162.265 184.808 162.265Z" fill="#F7A491"/>
<path d="M174.228 171.928C174.228 171.928 170.671 175.285 169.065 174.712C167.459 174.139 166.795 172.181 170.712 169.313C174.219 166.749 174.228 171.928 174.228 171.928Z" fill="#F8A492"/>
<path d="M171.819 176.073C172.347 173.198 176.176 164.253 176.482 162.605C176.631 161.804 178.697 161.787 180.664 161.891C182.742 162.001 184.806 162.264 184.806 162.264C184.806 162.264 186.647 162.565 187.456 163.324C188.265 164.083 188.48 166.18 187.316 170.162C186.398 173.305 185.26 175.031 184.695 177.32C184.581 178.088 184.483 178.846 184.353 179.732C184.146 183.156 184.356 187.678 184.356 187.678C184.356 187.678 174.34 189.755 170.594 186.603C170.595 186.604 171.278 179.018 171.819 176.073Z" fill="#0D47A1"/>
<path d="M169.264 169.892C169.264 169.892 173.194 173.136 173.423 173.136C173.571 173.136 179.032 169.119 180.292 165.819C180.989 163.995 179.527 161.954 177.857 161.96C176.7 161.966 176.185 162.263 173.892 164.197C171.599 166.132 169.264 169.892 169.264 169.892Z" fill="#466EB6"/>
<path d="M180.44 156.168L181.915 156.976C181.915 156.976 181.529 157.596 180.868 157.262C180.063 156.854 180.44 156.168 180.44 156.168Z" fill="white"/>
<path d="M87.0358 173.455C86.9205 173.124 88.5289 172.857 88.6157 172.523C88.7012 172.189 86.5838 172.162 86.5087 171.868C86.3689 171.326 88.8294 171.754 88.7815 171.5C88.7335 171.246 86.2174 170.68 86.4893 170.246C86.7613 169.811 89.0366 171.105 89.1052 170.811C89.1738 170.516 86.8817 169.798 86.9218 169.152C86.9438 168.806 90.6851 170.876 91.1189 170.688C91.5528 170.5 90.6527 168.876 90.9972 168.634C91.343 168.393 92.3349 171.935 92.5732 172.054C92.8102 172.172 97.8659 175.057 99.6646 175.516C99.8835 174.914 102.459 171.184 102.651 170.614C103.66 171.333 104.696 171.431 105.737 172.085C104.982 173.976 101.519 179.226 100.993 179.463C99.3927 180.185 93.2026 175.052 91.9659 174.173C90.7291 173.293 90.0208 173.578 89.1855 173.301C88.3489 173.023 87.151 173.787 87.0358 173.455Z" fill="#F7A491"/>
<path d="M121.383 159.757C120.456 157.288 118.036 155.794 115.516 156.255C114.742 155.007 113.453 154.079 112.049 153.779C109.281 153.186 105.539 154.279 105.64 157.209C104.566 159.178 104.525 161.993 106.168 163.49C105.597 166.137 108.076 168.697 111.299 168.604C112.422 170.455 114.56 171.646 116.686 171.391C117.196 171.33 117.975 171.203 118.104 171.234C117.942 171.205 121.52 173.947 124.552 169.73C127.644 165.426 125.471 160.216 121.383 159.757Z" fill="#184655"/>
<path d="M112.696 183.563C112.788 183.601 111.48 185.287 110.206 186.479C109.178 187.769 108.214 189.295 107.883 190.96C107.379 193.491 107.797 205.992 107.36 206.882C103.589 210.569 100.859 219.82 100.092 222.644C99.9433 223.194 99.6403 223.69 99.2207 224.076L99.3891 227.265L101.263 228.992C101.263 228.992 100.846 226.393 101.679 224.464C101.679 224.464 111.172 210.086 111.736 208.988C112.812 205.858 116.733 189.823 116.733 189.823L117.643 186.138C117.642 186.135 112.704 183.566 112.696 183.563Z" fill="#F7A491"/>
<path d="M97.166 225.101C97.166 225.101 98.3522 226.929 98.4532 227.641C98.5543 228.353 99.1862 229.968 99.8842 230.07C100.044 230.094 102.759 230.293 102.74 229.954C102.724 229.695 101.741 229.324 101.284 229.008C100.494 228.463 99.2691 224.023 99.2691 224.023C99.2691 224.023 97.2178 224.532 97.166 225.101Z" fill="#355389"/>
<path d="M113.092 164.035C113.092 164.035 117.065 156.89 118.031 155.371C118.997 153.852 121.516 147.816 121.605 147.577C121.694 147.339 119.871 144.484 120.278 144.385C120.684 144.287 121.135 145.891 121.57 145.7C122.004 145.508 123.273 141.647 123.52 141.838C123.984 142.197 122.837 144.234 123.083 144.362C123.33 144.49 124.077 142.121 124.563 142.19C125.047 142.26 123.641 144.362 123.777 144.547C123.913 144.732 125.374 142.752 125.638 143.174C125.781 143.403 124.295 144.903 124.58 145.043C124.865 145.183 126.188 144.215 126.328 144.495C126.468 144.775 125.106 145.157 124.698 145.909C124.29 146.662 123.596 146.987 123.308 148.38C123.019 149.774 122.589 154.816 121.112 157.331C119.635 159.847 116.388 165.415 116.388 165.415L113.092 164.035Z" fill="#F79C8D"/>
<path d="M120.809 189.104C120.809 189.104 126.924 202.178 126.963 204.478C126.997 206.449 125.894 217.505 126.201 226.711C126.213 227.044 126.634 227.485 127.246 227.766C127.591 227.924 129.256 228.668 129.256 228.668L129.486 229.263L123.75 228.855L123.668 227.29C123.668 227.29 121.385 213.517 121.618 209.622C121.655 209.01 121.953 205.347 121.953 205.347L115.057 192.032L119.394 186.333L120.809 189.104Z" fill="#F7A491"/>
<path d="M106.793 204.81C106.795 204.814 106.795 204.814 106.797 204.81H106.793Z" fill="#F47458"/>
<path d="M115.541 167.904C115.705 166.899 117.26 164.382 117.506 163.766C117.506 163.766 115.703 161.474 114.239 161.647C114.239 161.647 112.272 164.909 111.153 165.018C110.034 165.128 106.1 165.298 105.41 165.718C104.72 166.136 101.793 170.629 101.793 170.629C101.793 170.629 104.423 173.315 105.481 173.31C105.481 173.31 106.043 172.203 106.267 171.961C106.426 172.475 108.877 180.415 108.873 182.212L108.892 182.228C111.183 184.086 114.525 183.656 116.292 181.277C116.292 181.277 116.085 178.802 116.202 176.52C116.386 172.944 117.11 171.044 115.541 167.904Z" fill="#0D47A1"/>
<path d="M128.295 198.616L116.293 181.276C115.552 181.576 114.852 181.837 114.061 181.989C112.34 182.322 110.617 182.268 108.875 182.212C108.875 182.277 108.871 182.334 108.864 182.383C108.664 183.813 106.768 186.026 106.377 190.364C105.933 195.288 106.202 203.841 106.352 204.403C114.331 203.432 126.031 200.992 128.295 198.616Z" fill="#FFB420"/>
<path d="M109.127 162.128C109.127 162.128 109.549 164.402 109.465 165.298C109.381 166.194 109.787 169.085 111.609 169.095C113.433 169.104 111.955 165.421 111.784 164.542C111.612 163.662 111.572 160.943 111.572 160.943L109.127 162.128Z" fill="#F7A491"/>
<path d="M111.609 162.307C111.581 161.562 111.572 160.942 111.572 160.942L109.127 162.128C109.127 162.128 109.214 162.593 109.3 163.185C110.37 163.409 111.146 162.997 111.609 162.307Z" fill="#F47458"/>
<path d="M108.234 155.854C108.234 155.854 107.292 156.398 106.948 157.577C106.603 158.757 106.996 161.8 109.429 162.535C111.862 163.269 112.916 160.859 112.415 158.975C111.914 157.09 110.824 154.705 108.234 155.854Z" fill="#F7A491"/>
<path d="M112.719 158.244C112.671 158.75 112.403 159.136 112.121 159.108C111.837 159.079 111.647 158.646 111.695 158.139C111.743 157.633 112.011 157.247 112.293 157.275C112.575 157.305 112.766 157.739 112.719 158.244Z" fill="#F7A491"/>
<path d="M107.648 160.194C107.934 160.637 107.933 161.158 107.646 161.36C107.358 161.561 106.895 161.365 106.608 160.923C106.322 160.481 106.323 159.96 106.611 159.758C106.898 159.557 107.362 159.753 107.648 160.194Z" fill="#F7A491"/>
<path d="M123.733 229.946H130.978C131.246 229.923 131.311 229.706 131.219 229.573C131.027 229.298 130.183 229.098 129.232 228.66C127.566 228.834 123.937 227.695 123.674 227.313C123.522 228.077 123.584 229.914 123.733 229.946Z" fill="#355389"/>
<path d="M109.475 160.698L111.03 160.24C111.03 160.24 111.171 160.852 110.492 161.074C109.666 161.345 109.475 160.698 109.475 160.698Z" fill="white"/>
<path d="M70.0148 124.802C70.2168 124.81 70.7724 124.996 71.583 126.53C72.619 128.488 74.1342 134.403 74.1342 134.403L69.6133 136.087L69.0332 134.853L68.0762 125.346C68.0762 125.347 69.9591 124.8 70.0148 124.802Z" fill="#0D47A1"/>
<path d="M64.0408 123.95C65.3332 123.951 68.5318 124.329 70.0172 124.803C70.0172 124.803 71.1076 134.177 69.0356 141.299C68.572 142.893 69.4189 147.909 69.4189 147.909L56.0234 147.731C56.0234 147.731 57.6098 135.608 57.0128 133.65C56.4145 131.691 56.4003 124.867 56.4003 124.867C56.4003 124.867 56.4922 124.853 59.4099 124.348C60.7696 124.112 62.6603 123.947 64.0408 123.95Z" fill="#90AAD4"/>
<path d="M62.4786 165.306C62.4786 165.306 62.7752 168.726 63.3204 169.674C63.8656 170.621 63.2919 172.232 63.2634 172.453C63.2349 172.674 62.116 172.989 60.338 172.8C58.56 172.611 58.5884 172.2 58.7322 171.537C58.8759 170.874 59.8213 170.022 59.8796 169.39C59.9365 168.758 59.3344 166.486 59.3344 166.486L62.4786 165.306Z" fill="#F7A491"/>
<path d="M67.9066 145.085C67.9066 145.085 77.1529 144.573 79.2184 145.822C81.2827 147.073 77.7512 153.21 77.7512 153.21C77.7512 153.21 71.3163 152.914 58.7147 153.642C55.7297 153.814 55.4733 145.86 56.0315 145.202C56.5883 144.543 67.9066 145.085 67.9066 145.085Z" fill="#355389"/>
<path d="M60.1159 173.064C58.2848 172.869 58.5114 171.97 58.659 171.287C58.751 170.86 59.2767 170.356 59.5901 169.88C59.7533 170.011 60.0201 170.24 60.8152 170.475C61.6414 170.719 62.7732 170.237 63.4933 169.934C63.7497 170.891 63.7626 172.111 63.738 172.296C63.7095 172.523 61.947 173.26 60.1159 173.064Z" fill="#13375B"/>
<path d="M61.1259 151.701C61.495 154.497 63.3248 168.413 63.3248 168.413L59.0811 168.938C59.0811 168.938 53.8623 150.773 54.129 147.996C54.3971 145.218 56.35 144.983 56.35 144.983C56.35 144.983 60.1482 144.301 61.1259 151.701Z" fill="#466EB6"/>
<path d="M56.2534 125.908C57.5056 125.438 58.1182 136.723 58.2878 141.368C60.5062 141.581 64.3717 141.369 65.3339 141.298C65.7872 141.264 66.8309 140.882 67.2803 140.823C67.7413 140.762 68.1596 140.731 68.3862 140.771C68.4691 140.785 70.7807 141.73 70.9788 141.938C71.2236 142.195 71.8866 142.843 71.7752 143.124C71.6639 143.405 70.4997 142.343 70.4997 142.343L69.9312 142.024C70.6382 142.716 71.9889 143.626 71.7947 143.958C71.6056 144.282 70.387 143.357 69.5194 142.728C70.264 143.4 71.1886 144.603 70.9749 144.79C70.7833 144.959 69.7317 143.567 68.6077 143.165C68.1907 143.016 67.7763 143.428 67.4487 143.479C67.2078 143.515 66.8361 143.593 66.5991 143.527L65.3818 143.181C64.9674 143.218 64.9571 143.463 64.5375 143.552C64.0519 143.656 63.2541 143.765 62.6351 143.916C59.07 144.788 57.8812 145.192 56.7895 145.191C53.4847 145.185 53.293 127.018 56.2534 125.908Z" fill="#F7A491"/>
<path d="M53.8757 136.502C53.6413 131.745 53.675 125.881 56.3427 124.88C57.3956 124.485 59.25 126.859 58.9172 136.6C57.4927 136.716 55.4025 136.811 53.8757 136.502Z" fill="#0D47A1"/>
<path d="M74.8893 168.231C74.8893 168.231 74.519 169.419 75.182 170.203C75.8451 170.988 78.6008 171.759 78.9621 172.185C79.3234 172.609 79.2962 172.972 79.2962 172.972L71.5625 172.76L71.6467 170.424L72.0028 168.745L74.8893 168.231Z" fill="#F7A491"/>
<path d="M75.6634 170.596C75.6634 170.596 73.6755 171.4 72.7159 170.924C71.7563 170.447 71.7848 170.316 71.5077 170.494C71.2306 170.671 71.1309 172.861 71.1309 172.861L79.8268 173.116C80.4316 173.102 80.7385 172.656 80.2464 172.274C79.9097 172.013 79.5199 171.838 79.2984 171.711C78.6186 171.321 75.6634 170.596 75.6634 170.596Z" fill="#13375B"/>
<path d="M74.5969 147.277C75.1951 146.019 76.5536 144.381 78.9455 145.368C81.2273 146.308 81.8398 148.621 81.1198 150.988C80.3998 153.356 75.6613 167.274 75.4969 169.188L71.7129 169.213C71.7129 169.213 72.4005 158.192 72.5689 155.529C72.7308 152.966 73.5622 149.454 74.5969 147.277Z" fill="#466EB6"/>
<path d="M80.737 134.458H68.0901C67.7559 134.458 67.4542 134.661 67.3273 134.972L63.4332 144.502H56.461C56.2654 144.502 56.1074 144.66 56.1074 144.855C56.1074 145.051 56.2654 145.209 56.461 145.209H76.3055C76.8507 145.209 77.3454 144.888 77.5695 144.388L81.4907 135.623C81.7355 135.077 81.3353 134.458 80.737 134.458Z" fill="#12353D"/>
<path d="M73.9295 140.008C73.8441 140.437 73.4724 140.723 73.0981 140.648C72.7239 140.573 72.4908 140.165 72.5762 139.737C72.6617 139.309 73.0334 139.023 73.4076 139.098C73.7819 139.172 74.015 139.579 73.9295 140.008Z" fill="white"/>
<path d="M67.0446 112.501C66.6638 112.372 66.2883 112.227 65.9257 112.053C65.5165 111.854 64.9855 111.624 64.6501 111.572C63.9443 111.463 62.7322 111.536 62.0627 112.262C61.2287 113.168 59.746 112.426 60.0451 117.165C60.3831 122.53 63.3655 121.941 63.438 121.851C63.5105 121.76 66.0979 118.419 66.0979 118.419C66.0979 118.419 67.0031 120.399 67.0031 120.325C67.0031 120.255 71.6237 114.043 67.0446 112.501Z" fill="#0E2E35"/>
<path d="M64.7808 122.247L65.0385 124.163C65.0385 124.163 65.6147 126.925 64.8727 127.458C64.1307 127.99 61.7168 124.084 61.7168 124.084L61.9719 119.227L64.7808 122.247Z" fill="#F7A491"/>
<path d="M61.8887 120.802C62.5012 122.458 63.962 123.477 64.998 123.872L64.7791 122.247L61.9703 119.228L61.8887 120.802Z" fill="#F47458"/>
<path d="M64.6281 113.942C66.2003 113.688 67.6105 114.953 67.5717 116.527C67.5549 117.211 67.4992 118.065 67.3567 118.986C67.0148 121.199 65.5049 123.147 64.5064 122.973C63.508 122.8 60.9957 120.891 61.4386 117.742C61.7118 115.796 62.9783 114.209 64.6281 113.942Z" fill="#F7A491"/>
<path d="M62.132 118.117C62.0478 118.604 61.658 118.942 61.2617 118.873C60.8655 118.804 60.6116 118.354 60.6958 117.867C60.78 117.38 61.1698 117.042 61.5661 117.111C61.9636 117.179 62.2161 117.63 62.132 118.117Z" fill="#F7A491"/>
<path d="M61.5669 117.111C61.5669 117.111 62.7739 117.411 63.2219 116.634C63.67 115.858 65.2719 114.183 67.3077 114.877C69.3434 115.571 65.5154 113.188 65.3535 113.188C65.1903 113.188 63.2362 113.175 63.2362 113.175C63.2362 113.175 61.7301 114.415 61.6757 114.551C61.6213 114.687 61.1875 116.172 61.1875 116.172L61.5669 117.111Z" fill="#0E2E35"/>
<path d="M63.774 120.35L65.9703 120.769C65.9703 120.769 65.7606 121.597 64.7893 121.44C63.6044 121.25 63.774 120.35 63.774 120.35Z" fill="white"/>
<path d="M254.078 229.8H25.0678C24.6198 229.8 24.2559 230.164 24.2559 230.612C24.2559 231.06 24.6198 231.424 25.0678 231.424H254.078C254.526 231.424 254.89 231.06 254.89 230.612C254.89 230.164 254.528 229.8 254.078 229.8Z" fill="#12353D"/>
<path d="M207.206 170.812C207.09 170.481 208.699 170.214 208.786 169.88C208.871 169.546 206.754 169.518 206.679 169.224C206.539 168.683 208.999 169.111 208.951 168.857C208.903 168.603 206.387 168.037 206.659 167.603C206.931 167.169 209.206 168.462 209.275 168.168C209.344 167.873 207.052 167.155 207.092 166.509C207.114 166.163 210.855 168.233 211.289 168.045C211.723 167.857 210.823 166.233 211.167 165.991C211.513 165.75 212.505 169.292 212.743 169.411C212.98 169.529 218.036 172.414 219.835 172.873C220.053 172.27 220.525 171.457 220.718 170.887C221.727 171.606 222.476 171.966 223.518 172.621C222.763 174.512 221.689 176.583 221.163 176.82C219.563 177.542 213.373 172.409 212.136 171.53C210.899 170.65 210.191 170.935 209.355 170.657C208.519 170.38 207.322 171.144 207.206 170.812Z" fill="#F7A491"/>
<path d="M225.879 167.207C226.357 169.177 223.807 173.567 223.807 173.567C223.807 173.567 220.174 171.852 219.535 171.114C219.535 171.114 222.003 166.854 222.165 166.595C222.898 165.421 223.893 165.42 224.54 165.496C225.061 165.557 225.879 167.207 225.879 167.207Z" fill="#EAB765"/>
</svg>
